Inter-ThinItalic.ufo
<glyph name="numbersign" format="2">
  <advance width="1784.0"/>
  <unicode hex="0023"/>
  <note>
1. outline
2. slant 9.4 deg
3. remove extra shapes created by outlining
</note>
  <outline>
    <contour>
      <point x="1076.0" y="0.0" type="line"/>
      <point x="1140.0" y="0.0" type="line"/>
      <point x="1512.0" y="2048.0" type="line"/>
      <point x="1448.0" y="2048.0" type="line"/>
    </contour>
    <contour>
      <point x="100.0" y="636.0" type="line"/>
      <point x="1628.0" y="636.0" type="line"/>
      <point x="1640.0" y="700.0" type="line"/>
      <point x="112.0" y="700.0" type="line"/>
    </contour>
    <contour>
      <point x="356.0" y="0.0" type="line"/>
      <point x="420.0" y="0.0" type="line"/>
      <point x="792.0" y="2048.0" type="line"/>
      <point x="728.0" y="2048.0" type="line"/>
    </contour>
    <contour>
      <point x="228.0" y="1348.0" type="line"/>
      <point x="1756.0" y="1348.0" type="line"/>
      <point x="1770.0" y="1412.0" type="line"/>
      <point x="242.0" y="1412.0" type="line"/>
    </contour>
  </outline>
</glyph>
<glyph name="ampersand" format="2">
  <advance width="1644.0"/>
  <unicode hex="0026"/>
  <outline>
    <contour>
      <point x="626.0" y="-28.0" type="curve" smooth="yes"/>
      <point x="826.0" y="-28.0"/>
      <point x="1041.0" y="64.0"/>
      <point x="1206.0" y="204.0" type="curve" smooth="yes"/>
      <point x="1226.0" y="221.0"/>
      <point x="1244.0" y="242.0"/>
      <point x="1262.0" y="264.0" type="curve" smooth="yes"/>
      <point x="1367.0" y="392.0"/>
      <point x="1472.0" y="564.0"/>
      <point x="1530.0" y="736.0" type="curve"/>
      <point x="1466.0" y="744.0" type="line"/>
      <point x="1328.0" y="331.0"/>
      <point x="1022.0" y="46.0"/>
      <point x="622.0" y="36.0" type="curve" smooth="yes"/>
      <point x="333.0" y="29.0"/>
      <point x="160.0" y="248.0"/>
      <point x="202.0" y="512.0" type="curve" smooth="yes"/>
      <point x="228.0" y="676.0"/>
      <point x="332.0" y="795.0"/>
      <point x="610.0" y="980.0" type="curve" smooth="yes"/>
      <point x="946.0" y="1204.0" type="line" smooth="yes"/>
      <point x="1184.0" y="1363.0"/>
      <point x="1287.0" y="1496.0"/>
      <point x="1314.0" y="1660.0" type="curve" smooth="yes"/>
      <point x="1353.0" y="1900.0"/>
      <point x="1211.0" y="2076.0"/>
      <point x="978.0" y="2076.0" type="curve" smooth="yes"/>
      <point x="743.0" y="2076.0"/>
      <point x="509.0" y="1876.0"/>
      <point x="470.0" y="1644.0" type="curve" smooth="yes"/>
      <point x="444.0" y="1488.0"/>
      <point x="526.0" y="1369.0"/>
      <point x="674.0" y="1132.0" type="curve" smooth="yes"/>
      <point x="1382.0" y="0.0" type="line"/>
      <point x="1462.0" y="0.0" type="line"/>
      <point x="730.0" y="1172.0" type="line" smooth="yes"/>
      <point x="582.0" y="1409.0"/>
      <point x="513.0" y="1512.0"/>
      <point x="534.0" y="1644.0" type="curve" smooth="yes"/>
      <point x="565.0" y="1840.0"/>
      <point x="784.0" y="2012.0"/>
      <point x="982.0" y="2012.0" type="curve" smooth="yes"/>
      <point x="1180.0" y="2012.0"/>
      <point x="1282.0" y="1864.0"/>
      <point x="1250.0" y="1660.0" type="curve" smooth="yes"/>
      <point x="1227.0" y="1515.0"/>
      <point x="1135.0" y="1403.0"/>
      <point x="914.0" y="1256.0" type="curve" smooth="yes"/>
      <point x="578.0" y="1032.0" type="line" smooth="yes"/>
      <point x="283.0" y="835.0"/>
      <point x="170.0" y="696.0"/>
      <point x="138.0" y="512.0" type="curve" smooth="yes"/>
      <point x="86.0" y="213.0"/>
      <point x="302.0" y="-28.0"/>
    </contour>
  </outline>
</glyph>
<glyph name="hyphen" format="2">
  <advance width="1236.0"/>
  <unicode hex="002D"/>
  <guideline x="1102.0" y="878.0" angle="0.0"/>
  <outline>
    <contour>
      <point x="1024.0" y="910.0" type="line"/>
      <point x="260.0" y="910.0" type="line"/>
      <point x="248.0" y="846.0" type="line"/>
      <point x="1012.0" y="846.0" type="line"/>
    </contour>
  </outline>
</glyph>
<glyph name="one" format="2">
  <advance width="1148.0"/>
  <unicode hex="0031"/>
  <outline>
    <contour>
      <point x="928.0" y="2048.0" type="line"/>
      <point x="840.0" y="2048.0" type="line"/>
      <point x="364.0" y="1764.0" type="line"/>
      <point x="352.0" y="1688.0" type="line"/>
      <point x="840.0" y="1980.0" type="line"/>
      <point x="852.0" y="1980.0" type="line"/>
      <point x="524.0" y="0.0" type="line"/>
      <point x="588.0" y="0.0" type="line"/>
    </contour>
  </outline>
</glyph>
<glyph name="d" format="2">
  <advance width="1684.0"/>
  <unicode hex="0064"/>
  <outline>
    <contour>
      <point x="640.0" y="-32.0" type="curve" smooth="yes"/>
      <point x="885.0" y="-32.0"/>
      <point x="1102.0" y="130.0"/>
      <point x="1228.0" y="384.0" type="curve"/>
      <point x="1236.0" y="384.0" type="line"/>
      <point x="1172.0" y="0.0" type="line"/>
      <point x="1236.0" y="0.0" type="line"/>
      <point x="1576.0" y="2048.0" type="line"/>
      <point x="1512.0" y="2048.0" type="line"/>
      <point x="1362.0" y="1144.0" type="line"/>
      <point x="1354.0" y="1144.0" type="line"/>
      <point x="1316.0" y="1400.0"/>
      <point x="1147.0" y="1560.0"/>
      <point x="902.0" y="1560.0" type="curve" smooth="yes"/>
      <point x="543.0" y="1560.0"/>
      <point x="254.0" y="1216.0"/>
      <point x="178.0" y="764.0" type="curve" smooth="yes"/>
      <point x="104.0" y="310.0"/>
      <point x="275.0" y="-32.0"/>
    </contour>
    <contour>
      <point x="640.0" y="32.0" type="curve" smooth="yes"/>
      <point x="314.0" y="32.0"/>
      <point x="174.0" y="348.0"/>
      <point x="242.0" y="764.0" type="curve" smooth="yes"/>
      <point x="312.0" y="1180.0"/>
      <point x="578.0" y="1496.0"/>
      <point x="902.0" y="1496.0" type="curve" smooth="yes"/>
      <point x="1226.0" y="1496.0"/>
      <point x="1368.0" y="1180.0"/>
      <point x="1298.0" y="764.0" type="curve" smooth="yes"/>
      <point x="1230.0" y="348.0"/>
      <point x="966.0" y="32.0"/>
    </contour>
  </outline>
</glyph>
<glyph name="r" format="2">
  <advance width="916.0"/>
  <unicode hex="0072"/>
  <outline>
    <contour>
      <point x="144.0" y="0.0" type="line"/>
      <point x="208.0" y="0.0" type="line"/>
      <point x="380.0" y="1032.0" type="line" smooth="yes"/>
      <point x="424.0" y="1300.0"/>
      <point x="652.0" y="1492.0"/>
      <point x="924.0" y="1492.0" type="curve" smooth="yes"/>
      <point x="940.0" y="1492.0"/>
      <point x="940.0" y="1492.0"/>
      <point x="956.0" y="1492.0" type="curve"/>
      <point x="968.0" y="1556.0" type="line"/>
      <point x="952.0" y="1556.0"/>
      <point x="952.0" y="1556.0"/>
      <point x="936.0" y="1556.0" type="curve" smooth="yes"/>
      <point x="724.0" y="1556.0"/>
      <point x="528.0" y="1452.0"/>
      <point x="432.0" y="1292.0" type="curve"/>
      <point x="424.0" y="1292.0" type="line"/>
      <point x="464.0" y="1536.0" type="line"/>
      <point x="400.0" y="1536.0" type="line"/>
    </contour>
  </outline>
</glyph>
<glyph name="x" format="2">
  <advance width="1408.0"/>
  <unicode hex="0078"/>
  <outline>
    <contour>
      <point x="374.0" y="1536.0" type="line"/>
      <point x="304.0" y="1536.0" type="line"/>
      <point x="666.0" y="772.0" type="line"/>
      <point x="44.0" y="0.0" type="line"/>
      <point x="128.0" y="0.0" type="line"/>
      <point x="696.0" y="706.0" type="line"/>
      <point x="1030.0" y="0.0" type="line"/>
      <point x="1100.0" y="0.0" type="line"/>
      <point x="740.0" y="760.0" type="line"/>
      <point x="1364.0" y="1536.0" type="line"/>
      <point x="1282.0" y="1536.0" type="line"/>
      <point x="710.0" y="826.0" type="line"/>
    </contour>
  </outline>
</glyph>
<glyph name="y" format="2">
  <advance width="1472.0"/>
  <unicode hex="0079"/>
  <outline>
    <contour>
      <point x="118.0" y="-580.0" type="curve" smooth="yes"/>
      <point x="262.0" y="-581.0"/>
      <point x="402.0" y="-479.0"/>
      <point x="506.0" y="-280.0" type="curve" smooth="yes"/>
      <point x="1456.0" y="1536.0" type="line"/>
      <point x="1384.0" y="1536.0" type="line"/>
      <point x="622.0" y="80.0" type="line"/>
      <point x="614.0" y="80.0" type="line"/>
      <point x="336.0" y="1536.0" type="line"/>
      <point x="272.0" y="1536.0" type="line"/>
      <point x="568.0" y="-24.0" type="line"/>
      <point x="448.0" y="-252.0" type="line" smooth="yes"/>
      <point x="326.0" y="-481.0"/>
      <point x="162.0" y="-570.0"/>
      <point x="-14.0" y="-484.0" type="curve"/>
      <point x="-46.0" y="-540.0" type="line"/>
      <point x="10.0" y="-566.0"/>
      <point x="66.0" y="-580.0"/>
    </contour>
  </outline>
</glyph>
<glyph name="bar" format="2">
  <advance width="768.0"/>
  <unicode hex="007C"/>
  <outline>
    <contour>
      <point x="738.0" y="2708.0" type="line"/>
      <point x="674.0" y="2708.0" type="line"/>
      <point x="116.0" y="-660.0" type="line"/>
      <point x="180.0" y="-660.0" type="line"/>
    </contour>
  </outline>
</glyph>
<glyph name="dieresis" format="2">
  <advance width="1856.0"/>
  <unicode hex="00A8"/>
  <guideline x="752.0" y="1880.0" angle="0.0"/>
  <outline>
    <contour>
      <point x="916.0" y="1816.0" type="curve" smooth="yes"/>
      <point x="948.0" y="1816.0"/>
      <point x="980.0" y="1844.0"/>
      <point x="984.0" y="1872.0" type="curve" smooth="yes"/>
      <point x="990.0" y="1912.0"/>
      <point x="964.0" y="1944.0"/>
      <point x="924.0" y="1944.0" type="curve" smooth="yes"/>
      <point x="892.0" y="1944.0"/>
      <point x="862.0" y="1917.0"/>
      <point x="856.0" y="1888.0" type="curve" smooth="yes"/>
      <point x="848.0" y="1848.0"/>
      <point x="876.0" y="1816.0"/>
    </contour>
    <contour>
      <point x="1300.0" y="1816.0" type="curve" smooth="yes"/>
      <point x="1332.0" y="1816.0"/>
      <point x="1360.0" y="1840.0"/>
      <point x="1368.0" y="1872.0" type="curve" smooth="yes"/>
      <point x="1378.0" y="1911.0"/>
      <point x="1348.0" y="1944.0"/>
      <point x="1308.0" y="1944.0" type="curve" smooth="yes"/>
      <point x="1276.0" y="1944.0"/>
      <point x="1246.0" y="1916.0"/>
      <point x="1240.0" y="1888.0" type="curve" smooth="yes"/>
      <point x="1232.0" y="1852.0"/>
      <point x="1260.0" y="1816.0"/>
    </contour>
  </outline>
</glyph>
<glyph name="copyright" format="2">
  <advance width="2576.0"/>
  <unicode hex="00A9"/>
  <note>
Stroke R: 116
Stroke B: 160
</note>
  <outline>
    <contour>
      <point x="764.0" y="1024.0" type="curve" smooth="yes"/>
      <point x="710.0" y="696.0"/>
      <point x="932.0" y="430.0"/>
      <point x="1260.0" y="430.0" type="curve" smooth="yes"/>
      <point x="1496.0" y="430.0"/>
      <point x="1702.0" y="568.0"/>
      <point x="1812.0" y="768.0" type="curve"/>
      <point x="1740.0" y="768.0" type="line"/>
      <point x="1642.0" y="604.0"/>
      <point x="1456.0" y="494.0"/>
      <point x="1256.0" y="494.0" type="curve" smooth="yes"/>
      <point x="964.0" y="494.0"/>
      <point x="780.0" y="732.0"/>
      <point x="828.0" y="1024.0" type="curve" smooth="yes"/>
      <point x="878.0" y="1318.0"/>
      <point x="1164.0" y="1554.0"/>
      <point x="1456.0" y="1554.0" type="curve" smooth="yes"/>
      <point x="1656.0" y="1554.0"/>
      <point x="1782.0" y="1444.0"/>
      <point x="1824.0" y="1280.0" type="curve"/>
      <point x="1896.0" y="1280.0" type="line"/>
      <point x="1854.0" y="1480.0"/>
      <point x="1692.0" y="1618.0"/>
      <point x="1456.0" y="1618.0" type="curve" smooth="yes"/>
      <point x="1128.0" y="1618.0"/>
      <point x="818.0" y="1352.0"/>
    </contour>
    <component base="circlewhite"/>
  </outline>
</glyph>
<glyph name="registered" format="2">
  <advance width="1888.0"/>
  <unicode hex="00AE"/>
  <note>
Stroke L: 32
Stroke R: 96
Stroke B: 112
</note>
  <outline>
    <contour>
      <point x="710.0" y="916.0" type="line"/>
      <point x="774.0" y="916.0" type="line"/>
      <point x="886.0" y="1590.0" type="line"/>
      <point x="1136.0" y="1590.0" type="line" smooth="yes"/>
      <point x="1251.0" y="1590.0"/>
      <point x="1299.0" y="1532.0"/>
      <point x="1284.0" y="1434.0" type="curve" smooth="yes"/>
      <point x="1269.0" y="1336.0"/>
      <point x="1199.0" y="1274.0"/>
      <point x="1084.0" y="1274.0" type="curve" smooth="yes"/>
      <point x="804.0" y="1274.0" type="line"/>
      <point x="794.0" y="1210.0" type="line"/>
      <point x="1076.0" y="1210.0" type="line" smooth="yes"/>
      <point x="1227.0" y="1210.0"/>
      <point x="1327.0" y="1306.0"/>
      <point x="1348.0" y="1434.0" type="curve" smooth="yes"/>
      <point x="1369.0" y="1562.0"/>
      <point x="1299.0" y="1654.0"/>
      <point x="1148.0" y="1654.0" type="curve" smooth="yes"/>
      <point x="832.0" y="1654.0" type="line"/>
    </contour>
    <contour>
      <point x="1166.0" y="1248.0" type="line"/>
      <point x="1096.0" y="1248.0" type="line"/>
      <point x="1218.0" y="916.0" type="line"/>
      <point x="1292.0" y="916.0" type="line"/>
    </contour>
    <contour>
      <point x="1028.0" y="476.0" type="curve" smooth="yes"/>
      <point x="1469.0" y="476.0"/>
      <point x="1827.0" y="834.0"/>
      <point x="1828.0" y="1276.0" type="curve" smooth="yes"/>
      <point x="1829.0" y="1718.0"/>
      <point x="1469.0" y="2076.0"/>
      <point x="1028.0" y="2076.0" type="curve" smooth="yes"/>
      <point x="585.0" y="2076.0"/>
      <point x="227.0" y="1718.0"/>
      <point x="228.0" y="1276.0" type="curve" smooth="yes"/>
      <point x="229.0" y="834.0"/>
      <point x="585.0" y="476.0"/>
    </contour>
    <contour>
      <point x="1028.0" y="540.0" type="curve" smooth="yes"/>
      <point x="620.0" y="540.0"/>
      <point x="291.0" y="869.0"/>
      <point x="292.0" y="1276.0" type="curve" smooth="yes"/>
      <point x="293.0" y="1683.0"/>
      <point x="620.0" y="2012.0"/>
      <point x="1028.0" y="2012.0" type="curve" smooth="yes"/>
      <point x="1434.0" y="2012.0"/>
      <point x="1763.0" y="1683.0"/>
      <point x="1764.0" y="1276.0" type="curve" smooth="yes"/>
      <point x="1765.0" y="869.0"/>
      <point x="1434.0" y="540.0"/>
    </contour>
  </outline>
</glyph>
<glyph name="cedilla" format="2">
  <advance width="576.0"/>
  <unicode hex="00B8"/>
  <outline>
    <contour>
      <point x="138.0" y="8.0" type="line"/>
      <point x="86.0" y="-132.0" type="line"/>
      <point x="234.0" y="-130.0"/>
      <point x="297.0" y="-190.0"/>
      <point x="280.0" y="-304.0" type="curve" smooth="yes"/>
      <point x="265.0" y="-402.0"/>
      <point x="198.0" y="-448.0"/>
      <point x="48.0" y="-452.0" type="curve"/>
      <point x="40.0" y="-516.0" type="line"/>
      <point x="216.0" y="-510.0"/>
      <point x="320.0" y="-444.0"/>
      <point x="344.0" y="-304.0" type="curve" smooth="yes"/>
      <point x="365.0" y="-180.0"/>
      <point x="308.0" y="-94.0"/>
      <point x="174.0" y="-72.0" type="curve"/>
      <point x="202.0" y="8.0" type="line"/>
    </contour>
  </outline>
</glyph>
<glyph name="OE" format="2">
  <advance width="2596.0"/>
  <unicode hex="0152"/>
  <note>
!post:RemoveOverlap
</note>
  <outline>
    <contour>
      <point x="920.0" y="0.0" type="curve" smooth="yes"/>
      <point x="1172.0" y="0.0" type="line"/>
      <point x="1184.0" y="64.0" type="line"/>
      <point x="932.0" y="64.0" type="line" smooth="yes"/>
      <point x="451.0" y="64.0"/>
      <point x="210.0" y="446.0"/>
      <point x="308.0" y="1024.0" type="curve" smooth="yes"/>
      <point x="405.0" y="1597.0"/>
      <point x="786.0" y="1988.0"/>
      <point x="1248.0" y="1984.0" type="curve" smooth="yes"/>
      <point x="1500.0" y="1984.0" type="line"/>
      <point x="1512.0" y="2048.0" type="line"/>
      <point x="1260.0" y="2048.0" type="line" smooth="yes"/>
      <point x="748.0" y="2048.0"/>
      <point x="346.0" y="1642.0"/>
      <point x="244.0" y="1024.0" type="curve" smooth="yes"/>
      <point x="144.0" y="416.0"/>
      <point x="416.0" y="0.0"/>
    </contour>
    <component base="E" xOffset="948.0"/>
  </outline>
</glyph>
<glyph name="Nhook" format="2">
  <advance width="2112.0"/>
  <unicode hex="019D"/>
  <outline>
    <contour>
      <point x="144.0" y="0.0" type="line"/>
      <point x="104.0" y="-228.0" type="line" smooth="yes"/>
      <point x="66.0" y="-427.0"/>
      <point x="-28.0" y="-493.0"/>
      <point x="-178.0" y="-492.0" type="curve"/>
      <point x="-203.0" y="-493.0"/>
      <point x="-221.0" y="-484.0"/>
      <point x="-246.0" y="-480.0" type="curve"/>
      <point x="-258.0" y="-564.0" type="line"/>
      <point x="-216.0" y="-571.0"/>
      <point x="-200.0" y="-582.0"/>
      <point x="-134.0" y="-584.0" type="curve"/>
      <point x="51.0" y="-582.0"/>
      <point x="118.0" y="-397.0"/>
      <point x="164.0" y="-236.0" type="curve" smooth="yes"/>
      <point x="208.0" y="0.0" type="line"/>
    </contour>
    <component base="N" xOffset="-46.0"/>
  </outline>
</glyph>
<glyph name="Nsmallcap" format="2">
  <advance width="1696.0"/>
  <unicode hex="0274"/>
  <outline>
    <contour>
      <point x="1552.0" y="1536.0" type="line"/>
      <point x="1488.0" y="1536.0" type="line"/>
      <point x="1252.0" y="120.0" type="line"/>
      <point x="1244.0" y="120.0" type="line"/>
      <point x="464.0" y="1536.0" type="line"/>
      <point x="400.0" y="1536.0" type="line"/>
      <point x="144.0" y="0.0" type="line"/>
      <point x="208.0" y="0.0" type="line"/>
      <point x="444.0" y="1416.0" type="line"/>
      <point x="452.0" y="1416.0" type="line"/>
      <point x="1232.0" y="0.0" type="line"/>
      <point x="1296.0" y="0.0" type="line"/>
    </contour>
  </outline>
</glyph>
<glyph name="rturnrthook" format="2">
  <advance width="884.0"/>
  <unicode hex="027B"/>
  <outline>
    <contour>
      <point x="648.0" y="-540.0" type="curve" smooth="yes"/>
      <point x="664.0" y="-540.0"/>
      <point x="684.0" y="-540.0"/>
      <point x="700.0" y="-540.0" type="curve"/>
      <point x="710.0" y="-476.0" type="line"/>
      <point x="694.0" y="-476.0"/>
      <point x="674.0" y="-476.0"/>
      <point x="658.0" y="-476.0" type="curve" smooth="yes"/>
      <point x="530.0" y="-476.0"/>
      <point x="454.0" y="-386.0"/>
      <point x="474.0" y="-256.0" type="curve" smooth="yes"/>
      <point x="516.0" y="0.0" type="line"/>
      <point x="452.0" y="0.0" type="line"/>
      <point x="410.0" y="-256.0" type="line" smooth="yes"/>
      <point x="382.0" y="-422.0"/>
      <point x="482.0" y="-540.0"/>
    </contour>
    <component base="rturn"/>
  </outline>
</glyph>
<glyph name="rdescend.1" format="2">
  <advance width="1020.0"/>
  <unicode hex="027C"/>
  <outline>
    <contour>
      <point x="48.0" y="-576.0" type="line"/>
      <point x="112.0" y="-576.0" type="line"/>
      <point x="208.0" y="0.0" type="line"/>
      <point x="144.0" y="0.0" type="line"/>
    </contour>
    <component base="r.1"/>
  </outline>
</glyph>
<glyph name="rrthook.1" format="2">
  <advance width="1020.0"/>
  <unicode hex="027D"/>
  <outline>
    <contour>
      <point x="340.0" y="-540.0" type="curve" smooth="yes"/>
      <point x="356.0" y="-540.0"/>
      <point x="376.0" y="-540.0"/>
      <point x="392.0" y="-540.0" type="curve"/>
      <point x="402.0" y="-476.0" type="line"/>
      <point x="386.0" y="-476.0"/>
      <point x="366.0" y="-476.0"/>
      <point x="350.0" y="-476.0" type="curve" smooth="yes"/>
      <point x="222.0" y="-476.0"/>
      <point x="146.0" y="-386.0"/>
      <point x="166.0" y="-256.0" type="curve" smooth="yes"/>
      <point x="208.0" y="0.0" type="line"/>
      <point x="144.0" y="0.0" type="line"/>
      <point x="102.0" y="-256.0" type="line" smooth="yes"/>
      <point x="74.0" y="-422.0"/>
      <point x="174.0" y="-540.0"/>
    </contour>
    <component base="r.1"/>
  </outline>
</glyph>
<glyph name="zrthook" format="2">
  <advance width="1520.0"/>
  <unicode hex="0290"/>
  <outline>
    <contour>
      <point x="956.0" y="0.0" type="line"/>
      <point x="912.0" y="-264.0" type="line" smooth="yes"/>
      <point x="875.0" y="-485.0"/>
      <point x="1026.0" y="-600.0"/>
      <point x="1196.0" y="-600.0" type="curve" smooth="yes"/>
      <point x="1221.0" y="-600.0"/>
      <point x="1284.0" y="-596.0"/>
      <point x="1296.0" y="-588.0" type="curve"/>
      <point x="1312.0" y="-464.0" type="line"/>
      <point x="1310.0" y="-472.0"/>
      <point x="1269.0" y="-470.0"/>
      <point x="1268.0" y="-472.0" type="curve" smooth="yes"/>
      <point x="1204.0" y="-601.0"/>
      <point x="1056.0" y="-432.0"/>
      <point x="1084.0" y="-264.0" type="curve" smooth="yes"/>
      <point x="1128.0" y="0.0" type="line"/>
    </contour>
    <component base="z"/>
  </outline>
</glyph>
<glyph name="commareversedmod" format="2">
  <advance width="724.0"/>
  <unicode hex="02BD"/>
  <outline>
    <contour>
      <point x="514.0" y="1364.0" type="curve"/>
      <point x="566.0" y="1364.0" type="line"/>
      <point x="564.0" y="1516.0"/>
      <point x="559.0" y="1762.0"/>
      <point x="554.0" y="2032.0" type="curve" smooth="yes"/>
      <point x="552.0" y="2144.0" type="line"/>
      <point x="484.0" y="2144.0" type="line"/>
      <point x="486.0" y="2040.0" type="line" smooth="yes"/>
      <point x="490.0" y="1846.0"/>
      <point x="492.0" y="1514.0"/>
    </contour>
  </outline>
</glyph>
<glyph name="ringhalfright" format="2">
  <advance width="424.0"/>
  <unicode hex="02BE"/>
  <outline>
    <contour>
      <point x="158.0" y="1528.0" type="line"/>
      <point x="328.0" y="1528.0"/>
      <point x="460.0" y="1638.0"/>
      <point x="488.0" y="1802.0" type="curve" smooth="yes"/>
      <point x="514.0" y="1956.0"/>
      <point x="408.0" y="2076.0"/>
      <point x="248.0" y="2076.0" type="curve"/>
      <point x="238.0" y="2012.0" type="line"/>
      <point x="372.0" y="2012.0"/>
      <point x="445.0" y="1930.0"/>
      <point x="424.0" y="1802.0" type="curve" smooth="yes"/>
      <point x="404.0" y="1682.0"/>
      <point x="294.0" y="1592.0"/>
      <point x="168.0" y="1592.0" type="curve"/>
    </contour>
  </outline>
</glyph>
<glyph name="ringhalfleft" format="2">
  <advance width="424.0"/>
  <unicode hex="02BF"/>
  <outline>
    <contour>
      <point x="518.0" y="1528.0" type="curve"/>
      <point x="528.0" y="1592.0" type="line"/>
      <point x="402.0" y="1592.0"/>
      <point x="324.0" y="1682.0"/>
      <point x="344.0" y="1802.0" type="curve" smooth="yes"/>
      <point x="364.0" y="1924.0"/>
      <point x="470.0" y="2012.0"/>
      <point x="598.0" y="2012.0" type="curve"/>
      <point x="608.0" y="2076.0" type="line"/>
      <point x="446.0" y="2076.0"/>
      <point x="306.0" y="1960.0"/>
      <point x="280.0" y="1802.0" type="curve" smooth="yes"/>
      <point x="254.0" y="1648.0"/>
      <point x="356.0" y="1528.0"/>
    </contour>
  </outline>
</glyph>
<glyph name="arrowheadleftmod" format="2">
  <advance width="1264.0"/>
  <unicode hex="02C2"/>
  <outline>
    <contour>
      <point x="266.0" y="1292.0" type="line"/>
      <point x="382.0" y="1338.0" type="line"/>
      <point x="1312.0" y="1736.0" type="line"/>
      <point x="1324.0" y="1806.0" type="line"/>
      <point x="278.0" y="1358.0" type="line"/>
    </contour>
    <contour>
      <point x="1164.0" y="840.0" type="line"/>
      <point x="1176.0" y="910.0" type="line"/>
      <point x="378.0" y="1308.0" type="line"/>
      <point x="278.0" y="1354.0" type="line"/>
      <point x="266.0" y="1288.0" type="line"/>
    </contour>
  </outline>
</glyph>
<glyph name="arrowheadrightmod" format="2">
  <advance width="1264.0"/>
  <unicode hex="02C3"/>
  <outline>
    <contour>
      <point x="1238.0" y="1292.0" type="line"/>
      <point x="1250.0" y="1358.0" type="line"/>
      <point x="352.0" y="1806.0" type="line"/>
      <point x="340.0" y="1736.0" type="line"/>
      <point x="1138.0" y="1338.0" type="line"/>
    </contour>
    <contour>
      <point x="192.0" y="840.0" type="line"/>
      <point x="1238.0" y="1288.0" type="line"/>
      <point x="1250.0" y="1354.0" type="line"/>
      <point x="1134.0" y="1308.0" type="line"/>
      <point x="204.0" y="910.0" type="line"/>
    </contour>
  </outline>
</glyph>
<glyph name="arrowheadupmod" format="2">
  <advance width="1170.0"/>
  <unicode hex="02C4"/>
  <outline>
    <contour>
      <point x="1006.0" y="820.0" type="line"/>
      <point x="1076.0" y="820.0" type="line"/>
      <point x="790.0" y="1792.0" type="line"/>
      <point x="724.0" y="1792.0" type="line"/>
      <point x="752.0" y="1684.0" type="line"/>
    </contour>
    <contour>
      <point x="110.0" y="820.0" type="line"/>
      <point x="180.0" y="820.0" type="line"/>
      <point x="722.0" y="1684.0" type="line"/>
      <point x="786.0" y="1792.0" type="line"/>
      <point x="720.0" y="1792.0" type="line"/>
    </contour>
  </outline>
</glyph>
<glyph name="arrowheaddownmod" format="2">
  <advance width="1170.0"/>
  <unicode hex="02C5"/>
  <outline>
    <contour>
      <point x="562.0" y="820.0" type="line"/>
      <point x="628.0" y="820.0" type="line"/>
      <point x="1238.0" y="1792.0" type="line"/>
      <point x="1168.0" y="1792.0" type="line"/>
      <point x="626.0" y="928.0" type="line"/>
    </contour>
    <contour>
      <point x="558.0" y="820.0" type="line"/>
      <point x="624.0" y="820.0" type="line"/>
      <point x="596.0" y="928.0" type="line"/>
      <point x="342.0" y="1792.0" type="line"/>
      <point x="272.0" y="1792.0" type="line"/>
    </contour>
  </outline>
</glyph>
<glyph name="downtackmod" format="2">
  <advance width="916.0"/>
  <unicode hex="02D5"/>
  <outline>
    <contour>
      <point x="342.0" y="264.0" type="line"/>
      <point x="406.0" y="264.0" type="line"/>
      <point x="476.0" y="684.0" type="line"/>
      <point x="412.0" y="684.0" type="line"/>
    </contour>
    <contour>
      <point x="216.0" y="620.0" type="line"/>
      <point x="652.0" y="620.0" type="line"/>
      <point x="662.0" y="684.0" type="line"/>
      <point x="226.0" y="684.0" type="line"/>
    </contour>
  </outline>
</glyph>
<glyph name="breve" format="2">
  <advance width="1170.0"/>
  <unicode hex="02D8"/>
  <outline>
    <contour>
      <point x="958.0" y="2048.0" type="line"/>
      <point x="940.0" y="1942.0"/>
      <point x="874.0" y="1884.0"/>
      <point x="770.0" y="1884.0" type="curve" smooth="yes"/>
      <point x="666.0" y="1884.0"/>
      <point x="620.0" y="1942.0"/>
      <point x="638.0" y="2048.0" type="curve"/>
      <point x="574.0" y="2048.0" type="line"/>
      <point x="550.0" y="1908.0"/>
      <point x="620.0" y="1820.0"/>
      <point x="760.0" y="1820.0" type="curve" smooth="yes"/>
      <point x="900.0" y="1820.0"/>
      <point x="998.0" y="1908.0"/>
      <point x="1022.0" y="2048.0" type="curve"/>
    </contour>
  </outline>
</glyph>
<glyph name="dotaccent" format="2">
  <advance width="512.0"/>
  <unicode hex="02D9"/>
  <guideline x="752.0" y="1880.0" angle="0.0"/>
  <outline>
    <contour>
      <point x="436.0" y="1816.0" type="curve" smooth="yes"/>
      <point x="468.0" y="1816.0"/>
      <point x="499.0" y="1843.0"/>
      <point x="504.0" y="1872.0" type="curve" smooth="yes"/>
      <point x="511.0" y="1912.0"/>
      <point x="484.0" y="1944.0"/>
      <point x="444.0" y="1944.0" type="curve" smooth="yes"/>
      <point x="412.0" y="1944.0"/>
      <point x="381.0" y="1916.0"/>
      <point x="376.0" y="1888.0" type="curve" smooth="yes"/>
      <point x="369.0" y="1848.0"/>
      <point x="396.0" y="1816.0"/>
    </contour>
  </outline>
</glyph>
<glyph name="lowdownarrowheadmod" format="2">
  <advance width="919.0"/>
  <unicode hex="02EF"/>
  <outline>
    <contour>
      <point x="164.0" y="-740.0" type="line"/>
      <point x="244.0" y="-740.0" type="line"/>
      <point x="648.0" y="-100.0" type="line"/>
      <point x="520.0" y="-100.0" type="line"/>
      <point x="272.0" y="-532.0" type="line"/>
    </contour>
    <contour>
      <point x="180.0" y="-740.0" type="line"/>
      <point x="256.0" y="-740.0" type="line"/>
      <point x="220.0" y="-532.0" type="line"/>
      <point x="108.0" y="-100.0" type="line"/>
      <point x="-16.0" y="-100.0" type="line"/>
    </contour>
  </outline>
</glyph>
<glyph name="uni02FA" format="2">
  <advance width="608.0"/>
  <unicode hex="02FA"/>
  <outline>
    <contour>
      <point x="596.0" y="1664.0" type="line"/>
      <point x="660.0" y="1664.0" type="line"/>
      <point x="734.0" y="2112.0" type="line"/>
      <point x="670.0" y="2112.0" type="line"/>
    </contour>
    <contour>
      <point x="308.0" y="2048.0" type="line"/>
      <point x="724.0" y="2048.0" type="line"/>
      <point x="734.0" y="2112.0" type="line"/>
      <point x="318.0" y="2112.0" type="line"/>
    </contour>
  </outline>
</glyph>
<glyph name="uni02FB" format="2">
  <advance width="608.0"/>
  <unicode hex="02FB"/>
  <outline>
    <contour>
      <point x="-120.0" y="-536.0" type="line"/>
      <point x="-56.0" y="-536.0" type="line"/>
      <point x="18.0" y="-88.0" type="line"/>
      <point x="-46.0" y="-88.0" type="line"/>
    </contour>
    <contour>
      <point x="-120.0" y="-536.0" type="line"/>
      <point x="296.0" y="-536.0" type="line"/>
      <point x="306.0" y="-472.0" type="line"/>
      <point x="-110.0" y="-472.0" type="line"/>
    </contour>
  </outline>
</glyph>
<glyph name="dblgravecmb" format="2">
  <unicode hex="030F"/>
  <outline>
    <contour>
      <point x="-728.0" y="1760.0" type="line"/>
      <point x="-664.0" y="1760.0" type="line"/>
      <point x="-890.0" y="2192.0" type="line"/>
      <point x="-972.0" y="2192.0" type="line"/>
    </contour>
    <contour>
      <point x="-508.0" y="1760.0" type="line"/>
      <point x="-444.0" y="1760.0" type="line"/>
      <point x="-612.0" y="2192.0" type="line"/>
      <point x="-690.0" y="2192.0" type="line"/>
    </contour>
  </outline>
</glyph>
<glyph name="bridgesubnosp" format="2">
  <unicode hex="032A"/>
  <outline>
    <contour>
      <point x="-782.0" y="-640.0" type="line"/>
      <point x="-718.0" y="-640.0" type="line"/>
      <point x="-636.0" y="-152.0" type="line"/>
      <point x="-700.0" y="-152.0" type="line"/>
    </contour>
    <contour>
      <point x="-1366.0" y="-640.0" type="line"/>
      <point x="-1302.0" y="-640.0" type="line"/>
      <point x="-1220.0" y="-152.0" type="line"/>
      <point x="-1284.0" y="-152.0" type="line"/>
    </contour>
    <contour>
      <point x="-1258.0" y="-216.0" type="line"/>
      <point x="-690.0" y="-216.0" type="line"/>
      <point x="-680.0" y="-152.0" type="line"/>
      <point x="-1248.0" y="-152.0" type="line"/>
    </contour>
  </outline>
</glyph>
<glyph name="seagullsubnosp" format="2">
  <unicode hex="033C"/>
  <note>
position under "x".
offset curve settings:
L: 32,32,0%
R: 70,80,0%
B: 110,90,0%
</note>
  <outline>
    <contour>
      <point x="-878.0" y="-480.0" type="line"/>
      <point x="-860.0" y="-370.0"/>
      <point x="-786.0" y="-310.0"/>
      <point x="-674.0" y="-310.0" type="curve" smooth="yes"/>
      <point x="-564.0" y="-310.0"/>
      <point x="-508.0" y="-370.0"/>
      <point x="-526.0" y="-480.0" type="curve"/>
      <point x="-462.0" y="-480.0" type="line"/>
      <point x="-438.0" y="-336.0"/>
      <point x="-516.0" y="-246.0"/>
      <point x="-664.0" y="-246.0" type="curve" smooth="yes"/>
      <point x="-812.0" y="-246.0"/>
      <point x="-918.0" y="-336.0"/>
      <point x="-942.0" y="-480.0" type="curve"/>
    </contour>
    <contour>
      <point x="-1294.0" y="-480.0" type="line"/>
      <point x="-1276.0" y="-370.0"/>
      <point x="-1202.0" y="-310.0"/>
      <point x="-1090.0" y="-310.0" type="curve" smooth="yes"/>
      <point x="-980.0" y="-310.0"/>
      <point x="-924.0" y="-370.0"/>
      <point x="-942.0" y="-480.0" type="curve"/>
      <point x="-878.0" y="-480.0" type="line"/>
      <point x="-854.0" y="-336.0"/>
      <point x="-932.0" y="-246.0"/>
      <point x="-1080.0" y="-246.0" type="curve" smooth="yes"/>
      <point x="-1228.0" y="-246.0"/>
      <point x="-1334.0" y="-336.0"/>
      <point x="-1358.0" y="-480.0" type="curve"/>
    </contour>
  </outline>
</glyph>
<glyph name="uni0346" format="2">
  <unicode hex="0346"/>
  <outline>
    <contour>
      <point x="-980.0" y="1692.0" type="line"/>
      <point x="-916.0" y="1692.0" type="line"/>
      <point x="-828.0" y="2220.0" type="line"/>
      <point x="-892.0" y="2220.0" type="line"/>
    </contour>
    <contour>
      <point x="-866.0" y="2156.0" type="line"/>
      <point x="-298.0" y="2156.0" type="line"/>
      <point x="-288.0" y="2220.0" type="line"/>
      <point x="-856.0" y="2220.0" type="line"/>
    </contour>
    <contour>
      <point x="-396.0" y="1692.0" type="line"/>
      <point x="-332.0" y="1692.0" type="line"/>
      <point x="-244.0" y="2220.0" type="line"/>
      <point x="-308.0" y="2220.0" type="line"/>
    </contour>
  </outline>
</glyph>
<glyph name="uni0377" format="2">
  <advance width="1664.0"/>
  <unicode hex="0377"/>
  <outline>
    <contour>
      <point x="196.0" y="0.0" type="line"/>
      <point x="1352.0" y="1396.0" type="line"/>
      <point x="1268.0" y="1488.0" type="line"/>
      <point x="108.0" y="92.0" type="line"/>
    </contour>
    <contour>
      <point x="72.0" y="0.0" type="line"/>
      <point x="196.0" y="0.0" type="line"/>
      <point x="444.0" y="1488.0" type="line"/>
      <point x="320.0" y="1488.0" type="line"/>
    </contour>
    <contour>
      <point x="1168.0" y="-28.0" type="curve" smooth="yes"/>
      <point x="1224.0" y="-28.0"/>
      <point x="1282.0" y="-24.0"/>
      <point x="1350.0" y="36.0" type="curve"/>
      <point x="1334.0" y="124.0" type="line"/>
      <point x="1320.0" y="118.0"/>
      <point x="1294.0" y="112.0"/>
      <point x="1280.0" y="112.0" type="curve" smooth="yes"/>
      <point x="1232.0" y="112.0"/>
      <point x="1170.0" y="134.0"/>
      <point x="1204.0" y="332.0" type="curve" smooth="yes"/>
      <point x="1396.0" y="1488.0" type="line"/>
      <point x="1268.0" y="1488.0" type="line"/>
      <point x="1076.0" y="332.0" type="line" smooth="yes"/>
      <point x="1028.0" y="54.0"/>
      <point x="1066.0" y="-28.0"/>
    </contour>
  </outline>
</glyph>
<glyph name="beta" format="2">
  <advance width="1648.0"/>
  <unicode hex="03B2"/>
  <outline>
    <contour>
      <point x="754.0" y="1184.0" type="line"/>
      <point x="734.0" y="1064.0" type="line"/>
      <point x="998.0" y="1064.0" type="line" smooth="yes"/>
      <point x="1271.0" y="1062.0"/>
      <point x="1371.0" y="781.0"/>
      <point x="1338.0" y="556.0" type="curve" smooth="yes"/>
      <point x="1288.0" y="290.0"/>
      <point x="1048.0" y="48.0"/>
      <point x="718.0" y="48.0" type="curve" smooth="yes"/>
      <point x="418.0" y="48.0"/>
      <point x="263.0" y="245.0"/>
      <point x="302.0" y="472.0" type="curve"/>
      <point x="262.0" y="224.0" type="line"/>
      <point x="282.0" y="232.0" type="line"/>
      <point x="354.0" y="18.0"/>
      <point x="512.0" y="-35.0"/>
      <point x="674.0" y="-36.0" type="curve" smooth="yes"/>
      <point x="1046.0" y="-35.0"/>
      <point x="1344.0" y="252.0"/>
      <point x="1406.0" y="592.0" type="curve" smooth="yes"/>
      <point x="1439.0" y="840.0"/>
      <point x="1373.0" y="1184.0"/>
      <point x="962.0" y="1184.0" type="curve" smooth="yes"/>
    </contour>
    <contour>
      <point x="1038.0" y="2076.0" type="curve" smooth="yes"/>
      <point x="713.0" y="2076.0"/>
      <point x="446.0" y="1847.0"/>
      <point x="410.0" y="1600.0" type="curve"/>
      <point x="50.0" y="-576.0" type="line"/>
      <point x="130.0" y="-576.0" type="line"/>
      <point x="494.0" y="1628.0" type="line" smooth="yes"/>
      <point x="525.0" y="1838.0"/>
      <point x="772.0" y="2007.0"/>
      <point x="1026.0" y="2008.0" type="curve" smooth="yes"/>
      <point x="1274.0" y="2007.0"/>
      <point x="1465.0" y="1838.0"/>
      <point x="1434.0" y="1612.0" type="curve" smooth="yes"/>
      <point x="1392.0" y="1381.0"/>
      <point x="1154.0" y="1193.0"/>
      <point x="890.0" y="1192.0" type="curve" smooth="yes"/>
      <point x="758.0" y="1192.0" type="line"/>
      <point x="730.0" y="1056.0" type="line"/>
      <point x="810.0" y="1056.0" type="line" smooth="yes"/>
      <point x="1236.0" y="1054.0"/>
      <point x="1433.0" y="1327.0"/>
      <point x="1474.0" y="1548.0" type="curve" smooth="yes"/>
      <point x="1504.0" y="1744.0"/>
      <point x="1438.0" y="2076.0"/>
    </contour>
  </outline>
</glyph>
<glyph name="chi" format="2">
  <advance width="1802.0"/>
  <unicode hex="03C7"/>
  <note>
stroke R: 110, 50%
stroke B: ({Filter="OffsetCurve;250;200;1;0.5;";})
</note>
  <outline>
    <contour>
      <point x="134.0" y="-576.0" type="line"/>
      <point x="206.0" y="-576.0" type="line"/>
      <point x="898.0" y="416.0" type="line"/>
      <point x="1158.0" y="-334.0" type="line" smooth="yes"/>
      <point x="1230.0" y="-542.0"/>
      <point x="1277.0" y="-576.0"/>
      <point x="1474.0" y="-576.0" type="curve" smooth="yes"/>
      <point x="1532.0" y="-576.0" type="line"/>
      <point x="1542.0" y="-512.0" type="line"/>
      <point x="1484.0" y="-512.0" type="line" smooth="yes"/>
      <point x="1314.0" y="-512.0"/>
      <point x="1284.0" y="-493.0"/>
      <point x="1218.0" y="-304.0" type="curve" smooth="yes"/>
      <point x="938.0" y="504.0" type="line"/>
      <point x="888.0" y="504.0" type="line"/>
    </contour>
    <contour>
      <point x="880.0" y="466.0" type="line"/>
      <point x="932.0" y="466.0" type="line"/>
      <point x="1684.0" y="1536.0" type="line"/>
      <point x="1612.0" y="1536.0" type="line"/>
      <point x="920.0" y="552.0" type="line"/>
      <point x="656.0" y="1294.0" type="line" smooth="yes"/>
      <point x="583.0" y="1502.0"/>
      <point x="539.0" y="1536.0"/>
      <point x="340.0" y="1536.0" type="curve" smooth="yes"/>
      <point x="282.0" y="1536.0" type="line"/>
      <point x="272.0" y="1472.0" type="line"/>
      <point x="330.0" y="1472.0" type="line" smooth="yes"/>
      <point x="500.0" y="1472.0"/>
      <point x="530.0" y="1451.0"/>
      <point x="596.0" y="1264.0" type="curve" smooth="yes"/>
    </contour>
  </outline>
</glyph>
<glyph name="zecyrillic" format="2">
  <advance width="1364.0"/>
  <unicode hex="0437"/>
  <note>
stroke L: ({Filter="OffsetCurve;32;32;1;1;";})
</note>
  <outline>
    <contour>
      <point x="108.0" y="392.0" type="line"/>
      <point x="75.0" y="138.0"/>
      <point x="251.0" y="-32.0"/>
      <point x="554.0" y="-32.0" type="curve" smooth="yes"/>
      <point x="873.0" y="-32.0"/>
      <point x="1105.0" y="158.0"/>
      <point x="1148.0" y="414.0" type="curve" smooth="yes"/>
      <point x="1179.0" y="610.0"/>
      <point x="1086.0" y="766.0"/>
      <point x="948.0" y="796.0" type="curve"/>
      <point x="950.0" y="810.0" type="line"/>
      <point x="1097.0" y="853.0"/>
      <point x="1207.0" y="970.0"/>
      <point x="1234.0" y="1132.0" type="curve" smooth="yes"/>
      <point x="1274.0" y="1376.0"/>
      <point x="1118.0" y="1556.0"/>
      <point x="832.0" y="1556.0" type="curve" smooth="yes"/>
      <point x="558.0" y="1556.0"/>
      <point x="320.0" y="1386.0"/>
      <point x="266.0" y="1132.0" type="curve"/>
      <point x="330.0" y="1132.0" type="line"/>
      <point x="377.0" y="1344.0"/>
      <point x="585.0" y="1492.0"/>
      <point x="832.0" y="1492.0" type="curve" smooth="yes"/>
      <point x="1071.0" y="1492.0"/>
      <point x="1206.0" y="1350.0"/>
      <point x="1170.0" y="1132.0" type="curve" smooth="yes"/>
      <point x="1141.0" y="956.0"/>
      <point x="1014.0" y="864.0"/>
      <point x="836.0" y="832.0" type="curve"/>
      <point x="568.0" y="832.0" type="line"/>
      <point x="558.0" y="768.0" type="line"/>
      <point x="834.0" y="768.0" type="line"/>
      <point x="988.0" y="760.0"/>
      <point x="1118.0" y="624.0"/>
      <point x="1084.0" y="414.0" type="curve" smooth="yes"/>
      <point x="1046.0" y="190.0"/>
      <point x="836.0" y="32.0"/>
      <point x="554.0" y="32.0" type="curve" smooth="yes"/>
      <point x="284.0" y="32.0"/>
      <point x="146.0" y="178.0"/>
      <point x="172.0" y="392.0" type="curve"/>
    </contour>
  </outline>
</glyph>
<glyph name="encyrillic" format="2">
  <advance width="1642.0"/>
  <unicode hex="043D"/>
  <outline>
    <contour>
      <point x="1332.0" y="800.0" type="line"/>
      <point x="318.0" y="800.0" type="line"/>
      <point x="308.0" y="736.0" type="line"/>
      <point x="1322.0" y="736.0" type="line"/>
    </contour>
    <contour>
      <point x="462.0" y="1536.0" type="line"/>
      <point x="398.0" y="1536.0" type="line"/>
      <point x="144.0" y="0.0" type="line"/>
      <point x="208.0" y="0.0" type="line"/>
    </contour>
    <contour>
      <point x="1488.0" y="1536.0" type="line"/>
      <point x="1424.0" y="1536.0" type="line"/>
      <point x="1170.0" y="0.0" type="line"/>
      <point x="1234.0" y="0.0" type="line"/>
    </contour>
  </outline>
</glyph>
<glyph name="cheabkhasiancyrillic" format="2">
  <advance width="1992.0"/>
  <unicode hex="04BD"/>
  <outline>
    <contour>
      <point x="248.0" y="1108.0" type="line"/>
      <point x="203.0" y="876.0"/>
      <point x="301.0" y="770.0"/>
      <point x="560.0" y="768.0" type="curve"/>
      <point x="570.0" y="832.0" type="line"/>
      <point x="349.0" y="834.0"/>
      <point x="275.0" y="912.0"/>
      <point x="312.0" y="1108.0" type="curve"/>
    </contour>
    <component base="e" xOffset="368.0"/>
  </outline>
</glyph>
<glyph name="uni1DFF" format="2">
  <unicode hex="1DFF"/>
  <outline>
    <contour>
      <point x="-524.0" y="-748.0" type="line"/>
      <point x="-458.0" y="-748.0" type="line"/>
      <point x="36.0" y="-96.0" type="line"/>
      <point x="-34.0" y="-96.0" type="line"/>
      <point x="-462.0" y="-640.0" type="line"/>
    </contour>
    <contour>
      <point x="-1836.0" y="-732.0" type="line"/>
      <point x="-898.0" y="-450.0" type="line"/>
      <point x="-886.0" y="-384.0" type="line"/>
      <point x="-1002.0" y="-430.0" type="line"/>
      <point x="-1824.0" y="-662.0" type="line"/>
    </contour>
    <contour>
      <point x="-896.0" y="-446.0" type="line"/>
      <point x="-886.0" y="-380.0" type="line"/>
      <point x="-1732.0" y="-100.0" type="line"/>
      <point x="-1744.0" y="-170.0" type="line"/>
      <point x="-998.0" y="-400.0" type="line"/>
    </contour>
    <contour>
      <point x="-528.0" y="-748.0" type="line"/>
      <point x="-462.0" y="-748.0" type="line"/>
      <point x="-492.0" y="-640.0" type="line"/>
      <point x="-740.0" y="-96.0" type="line"/>
      <point x="-810.0" y="-96.0" type="line"/>
    </contour>
  </outline>
</glyph>
<glyph name="uni1FBE" format="2">
  <advance width="668.0"/>
  <unicode hex="1FBE"/>
  <note>
similar or identical to iotasubnosp
</note>
  <outline>
    <contour>
      <point x="162.0" y="-600.0" type="curve" smooth="yes"/>
      <point x="180.0" y="-600.0"/>
      <point x="212.0" y="-596.0"/>
      <point x="226.0" y="-592.0" type="curve"/>
      <point x="220.0" y="-530.0" type="line"/>
      <point x="210.0" y="-534.0"/>
      <point x="186.0" y="-536.0"/>
      <point x="172.0" y="-536.0" type="curve" smooth="yes"/>
      <point x="134.0" y="-536.0"/>
      <point x="110.0" y="-500.0"/>
      <point x="120.0" y="-444.0" type="curve" smooth="yes"/>
      <point x="172.0" y="-120.0" type="line"/>
      <point x="108.0" y="-120.0" type="line"/>
      <point x="56.0" y="-444.0" type="line" smooth="yes"/>
      <point x="40.0" y="-536.0"/>
      <point x="88.0" y="-600.0"/>
    </contour>
  </outline>
</glyph>
<glyph name="uni1FFD" format="2">
  <advance width="668.0"/>
  <unicode hex="1FFD"/>
  <outline>
    <contour>
      <point x="472.0" y="1728.0" type="line"/>
      <point x="508.0" y="1728.0" type="line"/>
      <point x="860.0" y="2192.0" type="line"/>
      <point x="860.0" y="2196.0" type="line"/>
      <point x="790.0" y="2196.0" type="line"/>
      <point x="474.0" y="1732.0" type="line"/>
    </contour>
  </outline>
</glyph>
<glyph name="afii300" format="2">
  <unicode hex="200F"/>
  <outline>
    <contour>
      <point x="-648.0" y="1716.0" type="line"/>
      <point x="-202.0" y="2032.0" type="line"/>
      <point x="-302.0" y="2032.0" type="line"/>
      <point x="-730.0" y="1728.0" type="line"/>
    </contour>
    <contour>
      <point x="-452.0" y="-276.0" type="line"/>
      <point x="-388.0" y="-276.0" type="line"/>
      <point x="-56.0" y="1736.0" type="line"/>
      <point x="-120.0" y="1736.0" type="line"/>
    </contour>
    <contour>
      <point x="-396.0" y="1472.0" type="line"/>
      <point x="-296.0" y="1472.0" type="line"/>
      <point x="-644.0" y="1740.0" type="line"/>
      <point x="-730.0" y="1728.0" type="line"/>
    </contour>
    <contour>
      <point x="-664.0" y="1696.0" type="line"/>
      <point x="-62.0" y="1696.0" type="line"/>
      <point x="-52.0" y="1760.0" type="line"/>
      <point x="-654.0" y="1760.0" type="line"/>
    </contour>
  </outline>
</glyph>
<glyph name="emdash" format="2">
  <advance width="2816.0"/>
  <unicode hex="2014"/>
  <guideline x="1102.0" y="878.0" angle="0.0"/>
  <outline>
    <contour>
      <point x="2840.0" y="910.0" type="line"/>
      <point x="22.0" y="910.0" type="line"/>
      <point x="12.0" y="846.0" type="line"/>
      <point x="2830.0" y="846.0" type="line"/>
    </contour>
  </outline>
</glyph>
<glyph name="bullet" format="2">
  <advance width="1584.0"/>
  <unicode hex="2022"/>
  <guideline x="1104.0" y="816.0" angle="0.0"/>
  <outline>
    <contour>
      <point x="756.0" y="560.0" type="curve" smooth="yes"/>
      <point x="896.0" y="560.0"/>
      <point x="1032.0" y="676.0"/>
      <point x="1056.0" y="816.0" type="curve" smooth="yes"/>
      <point x="1080.0" y="956.0"/>
      <point x="980.0" y="1072.0"/>
      <point x="840.0" y="1072.0" type="curve" smooth="yes"/>
      <point x="700.0" y="1072.0"/>
      <point x="564.0" y="956.0"/>
      <point x="544.0" y="816.0" type="curve" smooth="yes"/>
      <point x="524.0" y="675.0"/>
      <point x="616.0" y="560.0"/>
    </contour>
  </outline>
</glyph>
<glyph name="hyphenbullet" format="2">
  <advance width="1584.0"/>
  <unicode hex="2043"/>
  <guideline x="1036.0" y="816.0" angle="0.0"/>
  <outline>
    <contour>
      <point x="1078.0" y="848.0" type="line"/>
      <point x="534.0" y="848.0" type="line"/>
      <point x="524.0" y="784.0" type="line"/>
      <point x="1068.0" y="784.0" type="line"/>
    </contour>
  </outline>
</glyph>
<glyph name="paragraphreversed" format="2">
  <advance width="1568.0"/>
  <unicode hex="204B"/>
  <outline>
    <contour>
      <point x="574.0" y="760.0" type="line"/>
      <point x="690.0" y="760.0" type="line" smooth="yes"/>
      <point x="1126.0" y="760.0"/>
      <point x="1412.0" y="1032.0"/>
      <point x="1474.0" y="1404.0" type="curve" smooth="yes"/>
      <point x="1534.0" y="1772.0"/>
      <point x="1340.0" y="2048.0"/>
      <point x="904.0" y="2048.0" type="curve" smooth="yes"/>
      <point x="532.0" y="2048.0" type="line"/>
      <point x="522.0" y="1984.0" type="line"/>
      <point x="778.0" y="1984.0" type="line"/>
    </contour>
    <contour>
      <point x="192.0" y="0.0" type="line"/>
      <point x="256.0" y="0.0" type="line"/>
      <point x="596.0" y="2048.0" type="line"/>
      <point x="532.0" y="2048.0" type="line"/>
    </contour>
  </outline>
</glyph>
<glyph name="blackleftbullet" format="2">
  <advance width="1752.0"/>
  <unicode hex="204C"/>
  <note>
Based on paragraph. Slightly shorter.
</note>
  <outline>
    <contour>
      <point x="862.0" y="292.0" type="curve"/>
      <point x="1274.0" y="292.0" type="line"/>
      <point x="1284.0" y="356.0" type="line"/>
      <point x="1028.0" y="356.0" type="line"/>
      <point x="1180.0" y="1276.0" type="line"/>
      <point x="1436.0" y="1276.0" type="line"/>
      <point x="1446.0" y="1340.0" type="line"/>
      <point x="1034.0" y="1340.0" type="line"/>
      <point x="676.0" y="1340.0"/>
      <point x="444.0" y="1130.0"/>
      <point x="392.0" y="816.0" type="curve"/>
      <point x="340.0" y="502.0"/>
      <point x="504.0" y="292.0"/>
    </contour>
    <contour>
      <point x="1210.0" y="292.0" type="line"/>
      <point x="1274.0" y="292.0" type="line"/>
      <point x="1446.0" y="1340.0" type="line"/>
      <point x="1382.0" y="1340.0" type="line"/>
    </contour>
  </outline>
</glyph>
<glyph name="blackrightbullet" format="2">
  <advance width="1752.0"/>
  <unicode hex="204D"/>
  <outline>
    <contour>
      <point x="322.0" y="292.0" type="line"/>
      <point x="734.0" y="292.0" type="line" smooth="yes"/>
      <point x="1091.0" y="292.0"/>
      <point x="1324.0" y="502.0"/>
      <point x="1376.0" y="816.0" type="curve" smooth="yes"/>
      <point x="1428.0" y="1130.0"/>
      <point x="1265.0" y="1340.0"/>
      <point x="906.0" y="1340.0" type="curve" smooth="yes"/>
      <point x="494.0" y="1340.0" type="line"/>
      <point x="484.0" y="1276.0" type="line"/>
      <point x="740.0" y="1276.0" type="line"/>
      <point x="588.0" y="356.0" type="line"/>
      <point x="332.0" y="356.0" type="line"/>
    </contour>
    <contour>
      <point x="322.0" y="292.0" type="line"/>
      <point x="386.0" y="292.0" type="line"/>
      <point x="558.0" y="1340.0" type="line"/>
      <point x="494.0" y="1340.0" type="line"/>
    </contour>
  </outline>
</glyph>
<glyph name="reversedsemicolon" format="2">
  <advance width="728.0"/>
  <unicode hex="204F"/>
  <outline>
    <contour>
      <point x="222.0" y="-500.0" type="curve"/>
      <point x="274.0" y="-500.0" type="line"/>
      <point x="272.0" y="-348.0"/>
      <point x="264.0" y="-102.0"/>
      <point x="260.0" y="168.0" type="curve" smooth="yes"/>
      <point x="260.0" y="280.0" type="line"/>
      <point x="192.0" y="280.0" type="line"/>
      <point x="194.0" y="176.0" type="line" smooth="yes"/>
      <point x="198.0" y="-18.0"/>
      <point x="198.0" y="-350.0"/>
    </contour>
    <contour>
      <point x="406.0" y="1192.0" type="curve" smooth="yes"/>
      <point x="446.0" y="1192.0"/>
      <point x="484.0" y="1224.0"/>
      <point x="490.0" y="1264.0" type="curve" smooth="yes"/>
      <point x="496.0" y="1304.0"/>
      <point x="470.0" y="1336.0"/>
      <point x="430.0" y="1336.0" type="curve" smooth="yes"/>
      <point x="390.0" y="1336.0"/>
      <point x="352.0" y="1304.0"/>
      <point x="346.0" y="1264.0" type="curve" smooth="yes"/>
      <point x="340.0" y="1224.0"/>
      <point x="366.0" y="1192.0"/>
    </contour>
  </outline>
</glyph>
<glyph name="published" format="2">
  <advance width="1888.0"/>
  <unicode hex="2117"/>
  <outline>
    <contour>
      <point x="756.0" y="916.0" type="line"/>
      <point x="820.0" y="916.0" type="line"/>
      <point x="932.0" y="1590.0" type="line"/>
      <point x="1190.0" y="1590.0" type="line" smooth="yes"/>
      <point x="1306.0" y="1590.0"/>
      <point x="1342.0" y="1512.0"/>
      <point x="1324.0" y="1414.0" type="curve" smooth="yes"/>
      <point x="1306.0" y="1316.0"/>
      <point x="1230.0" y="1234.0"/>
      <point x="1114.0" y="1234.0" type="curve" smooth="yes"/>
      <point x="844.0" y="1234.0" type="line"/>
      <point x="832.0" y="1170.0" type="line"/>
      <point x="1114.0" y="1170.0" type="line" smooth="yes"/>
      <point x="1266.0" y="1170.0"/>
      <point x="1370.0" y="1286.0"/>
      <point x="1390.0" y="1414.0" type="curve" smooth="yes"/>
      <point x="1410.0" y="1544.0"/>
      <point x="1346.0" y="1654.0"/>
      <point x="1194.0" y="1654.0" type="curve" smooth="yes"/>
      <point x="878.0" y="1654.0" type="line"/>
    </contour>
    <contour>
      <point x="1028.0" y="476.0" type="curve" smooth="yes"/>
      <point x="1470.0" y="476.0"/>
      <point x="1828.0" y="834.0"/>
      <point x="1828.0" y="1276.0" type="curve" smooth="yes"/>
      <point x="1828.0" y="1718.0"/>
      <point x="1470.0" y="2076.0"/>
      <point x="1028.0" y="2076.0" type="curve" smooth="yes"/>
      <point x="586.0" y="2076.0"/>
      <point x="228.0" y="1718.0"/>
      <point x="228.0" y="1276.0" type="curve" smooth="yes"/>
      <point x="228.0" y="834.0"/>
      <point x="586.0" y="476.0"/>
    </contour>
    <contour>
      <point x="1028.0" y="540.0" type="curve" smooth="yes"/>
      <point x="622.0" y="540.0"/>
      <point x="292.0" y="870.0"/>
      <point x="292.0" y="1276.0" type="curve" smooth="yes"/>
      <point x="292.0" y="1684.0"/>
      <point x="622.0" y="2012.0"/>
      <point x="1028.0" y="2012.0" type="curve" smooth="yes"/>
      <point x="1436.0" y="2012.0"/>
      <point x="1764.0" y="1684.0"/>
      <point x="1764.0" y="1276.0" type="curve" smooth="yes"/>
      <point x="1764.0" y="870.0"/>
      <point x="1436.0" y="540.0"/>
    </contour>
  </outline>
</glyph>
<glyph name="servicemark" format="2">
  <advance width="1640.0"/>
  <unicode hex="2120"/>
  <note>
stroke R: 58, 50%
stroke B: x=120/y=86, 50%
</note>
  <outline>
    <contour>
      <point x="472.0" y="1308.0" type="curve" smooth="yes"/>
      <point x="634.0" y="1308.0"/>
      <point x="762.0" y="1392.0"/>
      <point x="780.0" y="1512.0" type="curve" smooth="yes"/>
      <point x="795.0" y="1614.0"/>
      <point x="724.0" y="1688.0"/>
      <point x="594.0" y="1712.0" type="curve" smooth="yes"/>
      <point x="506.0" y="1728.0" type="line" smooth="yes"/>
      <point x="418.0" y="1744.0"/>
      <point x="368.0" y="1796.0"/>
      <point x="376.0" y="1860.0" type="curve" smooth="yes"/>
      <point x="385.0" y="1934.0"/>
      <point x="474.0" y="1988.0"/>
      <point x="592.0" y="1988.0" type="curve" smooth="yes"/>
      <point x="712.0" y="1988.0"/>
      <point x="774.0" y="1934.0"/>
      <point x="760.0" y="1842.0" type="curve"/>
      <point x="824.0" y="1842.0" type="line"/>
      <point x="844.0" y="1972.0"/>
      <point x="758.0" y="2054.0"/>
      <point x="602.0" y="2052.0" type="curve" smooth="yes"/>
      <point x="450.0" y="2050.0"/>
      <point x="327.0" y="1972.0"/>
      <point x="312.0" y="1858.0" type="curve" smooth="yes"/>
      <point x="299.0" y="1762.0"/>
      <point x="368.0" y="1685.0"/>
      <point x="484.0" y="1664.0" type="curve" smooth="yes"/>
      <point x="572.0" y="1648.0" type="line" smooth="yes"/>
      <point x="674.0" y="1629.0"/>
      <point x="726.0" y="1580.0"/>
      <point x="716.0" y="1512.0" type="curve" smooth="yes"/>
      <point x="704.0" y="1430.0"/>
      <point x="610.0" y="1372.0"/>
      <point x="482.0" y="1372.0" type="curve" smooth="yes"/>
      <point x="350.0" y="1372.0"/>
      <point x="286.0" y="1432.0"/>
      <point x="302.0" y="1536.0" type="curve"/>
      <point x="238.0" y="1536.0" type="line"/>
      <point x="216.0" y="1396.0"/>
      <point x="306.0" y="1308.0"/>
    </contour>
    <contour>
      <point x="898.0" y="1312.0" type="line"/>
      <point x="962.0" y="1312.0" type="line"/>
      <point x="1084.0" y="2048.0" type="line"/>
      <point x="1020.0" y="2048.0" type="line"/>
    </contour>
    <contour>
      <point x="1216.0" y="1312.0" type="line"/>
      <point x="1284.0" y="1312.0" type="line"/>
      <point x="1714.0" y="2048.0" type="line"/>
      <point x="1644.0" y="2048.0" type="line"/>
      <point x="1264.0" y="1396.0" type="line"/>
      <point x="1100.0" y="2048.0" type="line"/>
      <point x="1030.0" y="2048.0" type="line"/>
    </contour>
    <contour>
      <point x="1538.0" y="1312.0" type="line"/>
      <point x="1602.0" y="1312.0" type="line"/>
      <point x="1724.0" y="2048.0" type="line"/>
      <point x="1660.0" y="2048.0" type="line"/>
    </contour>
  </outline>
</glyph>
<glyph name="tel" format="2">
  <advance width="1816.0"/>
  <unicode hex="2121"/>
  <outline>
    <contour>
      <point x="882.0" y="1312.0" type="line"/>
      <point x="1266.0" y="1312.0" type="line"/>
      <point x="1276.0" y="1376.0" type="line"/>
      <point x="956.0" y="1376.0" type="line"/>
      <point x="1056.0" y="1984.0" type="line"/>
      <point x="1376.0" y="1984.0" type="line"/>
      <point x="1388.0" y="2048.0" type="line"/>
      <point x="1004.0" y="2048.0" type="line"/>
    </contour>
    <contour>
      <point x="426.0" y="1312.0" type="line"/>
      <point x="490.0" y="1312.0" type="line"/>
      <point x="606.0" y="2016.0" type="line"/>
      <point x="542.0" y="2016.0" type="line"/>
    </contour>
    <contour>
      <point x="312.0" y="1984.0" type="line"/>
      <point x="824.0" y="1984.0" type="line"/>
      <point x="836.0" y="2048.0" type="line"/>
      <point x="324.0" y="2048.0" type="line"/>
    </contour>
    <contour>
      <point x="972.0" y="1664.0" type="line"/>
      <point x="1260.0" y="1664.0" type="line"/>
      <point x="1270.0" y="1728.0" type="line"/>
      <point x="982.0" y="1728.0" type="line"/>
    </contour>
    <contour>
      <point x="1434.0" y="1312.0" type="line"/>
      <point x="1794.0" y="1312.0" type="line"/>
      <point x="1804.0" y="1376.0" type="line"/>
      <point x="1508.0" y="1376.0" type="line"/>
      <point x="1620.0" y="2048.0" type="line"/>
      <point x="1556.0" y="2048.0" type="line"/>
    </contour>
  </outline>
</glyph>
<glyph name="trademark" format="2">
  <advance width="1624.0"/>
  <unicode hex="2122"/>
  <outline>
    <contour>
      <point x="1200.0" y="1312.0" type="line"/>
      <point x="1268.0" y="1312.0" type="line"/>
      <point x="1698.0" y="2048.0" type="line"/>
      <point x="1628.0" y="2048.0" type="line"/>
      <point x="1248.0" y="1396.0" type="line"/>
      <point x="1084.0" y="2048.0" type="line"/>
      <point x="1014.0" y="2048.0" type="line"/>
    </contour>
    <contour>
      <point x="882.0" y="1312.0" type="line"/>
      <point x="946.0" y="1312.0" type="line"/>
      <point x="1068.0" y="2048.0" type="line"/>
      <point x="1004.0" y="2048.0" type="line"/>
    </contour>
    <contour>
      <point x="1522.0" y="1312.0" type="line"/>
      <point x="1586.0" y="1312.0" type="line"/>
      <point x="1708.0" y="2048.0" type="line"/>
      <point x="1644.0" y="2048.0" type="line"/>
    </contour>
    <contour>
      <point x="426.0" y="1312.0" type="line"/>
      <point x="490.0" y="1312.0" type="line"/>
      <point x="608.0" y="2016.0" type="line"/>
      <point x="544.0" y="2016.0" type="line"/>
    </contour>
    <contour>
      <point x="314.0" y="1984.0" type="line"/>
      <point x="826.0" y="1984.0" type="line"/>
      <point x="836.0" y="2048.0" type="line"/>
      <point x="324.0" y="2048.0" type="line"/>
    </contour>
  </outline>
</glyph>
<glyph name="uni213B" format="2">
  <advance width="2076.0"/>
  <unicode hex="213B"/>
  <outline>
    <contour>
      <point x="218.0" y="1312.0" type="line"/>
      <point x="282.0" y="1312.0" type="line"/>
      <point x="334.0" y="1632.0" type="line"/>
      <point x="618.0" y="1632.0" type="line"/>
      <point x="630.0" y="1696.0" type="line"/>
      <point x="346.0" y="1696.0" type="line"/>
      <point x="392.0" y="1984.0" type="line"/>
      <point x="708.0" y="1984.0" type="line"/>
      <point x="720.0" y="2048.0" type="line"/>
      <point x="340.0" y="2048.0" type="line"/>
    </contour>
    <contour>
      <point x="670.0" y="1312.0" type="line"/>
      <point x="740.0" y="1312.0" type="line"/>
      <point x="1104.0" y="1962.0" type="line"/>
      <point x="1252.0" y="1312.0" type="line"/>
      <point x="1322.0" y="1312.0" type="line"/>
      <point x="1152.0" y="2048.0" type="line"/>
      <point x="1084.0" y="2048.0" type="line"/>
    </contour>
    <contour>
      <point x="840.0" y="1536.0" type="line"/>
      <point x="1224.0" y="1536.0" type="line"/>
      <point x="1236.0" y="1600.0" type="line"/>
      <point x="852.0" y="1600.0" type="line"/>
    </contour>
    <contour>
      <point x="1468.0" y="1312.0" type="line"/>
      <point x="1546.0" y="1312.0" type="line"/>
      <point x="2168.0" y="2048.0" type="line"/>
      <point x="2090.0" y="2048.0" type="line"/>
    </contour>
    <contour>
      <point x="1976.0" y="1312.0" type="line"/>
      <point x="2054.0" y="1312.0" type="line"/>
      <point x="1676.0" y="2048.0" type="line"/>
      <point x="1598.0" y="2048.0" type="line"/>
    </contour>
  </outline>
</glyph>
<glyph name="leftArrow" format="2">
  <advance width="2688.0"/>
  <unicode hex="2190"/>
  <note>
stroke (offset curve):
  L head: 32, 0%
  L stem: 32, 50%
  R head: 108, 0%
  R stem: 110, 50%
  B head: 200, 0%
  B stem: 208, 50%
</note>
  <outline>
    <contour>
      <point x="1046.0" y="0.0" type="line"/>
      <point x="1096.0" y="42.0" type="line"/>
      <point x="410.0" y="864.0" type="line"/>
      <point x="2352.0" y="864.0" type="line"/>
      <point x="2362.0" y="928.0" type="line"/>
      <point x="432.0" y="928.0" type="line"/>
      <point x="1386.0" y="1744.0" type="line"/>
      <point x="1344.0" y="1792.0" type="line"/>
      <point x="298.0" y="896.0" type="line"/>
    </contour>
  </outline>
</glyph>
<glyph name="upArrow" format="2">
  <advance width="2688.0"/>
  <unicode hex="2191"/>
  <outline>
    <contour>
      <point x="1184.0" y="0.0" type="line"/>
      <point x="1248.0" y="0.0" type="line"/>
      <point x="1570.0" y="1938.0" type="line"/>
      <point x="2254.0" y="1118.0" type="line"/>
      <point x="2306.0" y="1164.0" type="line"/>
      <point x="1558.0" y="2060.0" type="line"/>
      <point x="512.0" y="1164.0" type="line"/>
      <point x="550.0" y="1118.0" type="line"/>
      <point x="1506.0" y="1938.0" type="line"/>
    </contour>
  </outline>
</glyph>
<glyph name="rightArrow" format="2">
  <advance width="2688.0"/>
  <unicode hex="2192"/>
  <outline>
    <contour>
      <point x="1386.0" y="0.0" type="line"/>
      <point x="2432.0" y="896.0" type="line"/>
      <point x="1684.0" y="1792.0" type="line"/>
      <point x="1634.0" y="1750.0" type="line"/>
      <point x="2320.0" y="928.0" type="line"/>
      <point x="378.0" y="928.0" type="line"/>
      <point x="368.0" y="864.0" type="line"/>
      <point x="2298.0" y="864.0" type="line"/>
      <point x="1344.0" y="48.0" type="line"/>
    </contour>
  </outline>
</glyph>
<glyph name="leftRightArrow" format="2">
  <advance width="3776.0"/>
  <unicode hex="2194"/>
  <outline>
    <contour>
      <point x="1046.0" y="0.0" type="line"/>
      <point x="1096.0" y="42.0" type="line"/>
      <point x="410.0" y="864.0" type="line"/>
      <point x="3386.0" y="864.0" type="line"/>
      <point x="2432.0" y="48.0" type="line"/>
      <point x="2474.0" y="0.0" type="line"/>
      <point x="3520.0" y="896.0" type="line"/>
      <point x="2772.0" y="1792.0" type="line"/>
      <point x="2722.0" y="1750.0" type="line"/>
      <point x="3408.0" y="928.0" type="line"/>
      <point x="432.0" y="928.0" type="line"/>
      <point x="1386.0" y="1744.0" type="line"/>
      <point x="1344.0" y="1792.0" type="line"/>
      <point x="298.0" y="896.0" type="line"/>
    </contour>
  </outline>
</glyph>
<glyph name="upDownArrow" format="2">
  <advance width="2688.0"/>
  <unicode hex="2195"/>
  <note>
vertical align with hyphen
</note>
  <outline>
    <contour>
      <point x="1116.0" y="-612.0" type="line"/>
      <point x="2160.0" y="284.0" type="line"/>
      <point x="2124.0" y="330.0" type="line"/>
      <point x="1168.0" y="-490.0" type="line"/>
      <point x="1620.0" y="2246.0" type="line"/>
      <point x="2306.0" y="1426.0" type="line"/>
      <point x="2356.0" y="1472.0" type="line"/>
      <point x="1608.0" y="2368.0" type="line"/>
      <point x="564.0" y="1472.0" type="line"/>
      <point x="604.0" y="1426.0" type="line"/>
      <point x="1556.0" y="2246.0" type="line"/>
      <point x="1104.0" y="-490.0" type="line"/>
      <point x="422.0" y="330.0" type="line"/>
      <point x="368.0" y="284.0" type="line"/>
    </contour>
  </outline>
</glyph>
<glyph name="northWestArrow" format="2">
  <advance width="2688.0"/>
  <unicode hex="2196"/>
  <outline>
    <contour>
      <point x="626.0" y="780.0" type="line"/>
      <point x="692.0" y="780.0" type="line"/>
      <point x="880.0" y="1938.0" type="line"/>
      <point x="2022.0" y="570.0" type="line"/>
      <point x="2076.0" y="616.0" type="line"/>
      <point x="934.0" y="1984.0" type="line"/>
      <point x="2092.0" y="1984.0" type="line"/>
      <point x="2104.0" y="2048.0" type="line"/>
      <point x="836.0" y="2048.0" type="line"/>
    </contour>
  </outline>
</glyph>
<glyph name="northEastArrow" format="2">
  <advance width="2688.0"/>
  <unicode hex="2197"/>
  <outline>
    <contour>
      <point x="598.0" y="570.0" type="line"/>
      <point x="2194.0" y="1938.0" type="line"/>
      <point x="2000.0" y="780.0" type="line"/>
      <point x="2066.0" y="780.0" type="line"/>
      <point x="2276.0" y="2048.0" type="line"/>
      <point x="1008.0" y="2048.0" type="line"/>
      <point x="996.0" y="1984.0" type="line"/>
      <point x="2154.0" y="1984.0" type="line"/>
      <point x="560.0" y="616.0" type="line"/>
    </contour>
  </outline>
</glyph>
<glyph name="leftHookArrow" format="2">
  <advance width="3218.0"/>
  <unicode hex="21A9"/>
  <note>
stroke offset curve:
L head: 32, 0%
L stem: 32, 50%
R stem: 110, 50%
R head: 108, 0%
B head: 200, 0%
B stem: 208, 50%
</note>
  <outline>
    <contour>
      <point x="350.0" y="864.0" type="line"/>
      <point x="2366.0" y="864.0" type="line" smooth="yes"/>
      <point x="2693.0" y="864.0"/>
      <point x="3002.0" y="1129.0"/>
      <point x="3056.0" y="1456.0" type="curve" smooth="yes"/>
      <point x="3110.0" y="1783.0"/>
      <point x="2889.0" y="2048.0"/>
      <point x="2562.0" y="2048.0" type="curve" smooth="yes"/>
      <point x="2450.0" y="2048.0" type="line"/>
      <point x="2440.0" y="1984.0" type="line"/>
      <point x="2552.0" y="1984.0" type="line" smooth="yes"/>
      <point x="2842.0" y="1984.0"/>
      <point x="3040.0" y="1747.0"/>
      <point x="2992.0" y="1456.0" type="curve" smooth="yes"/>
      <point x="2944.0" y="1165.0"/>
      <point x="2667.0" y="928.0"/>
      <point x="2376.0" y="928.0" type="curve" smooth="yes"/>
      <point x="360.0" y="928.0" type="line"/>
    </contour>
    <contour>
      <point x="1044.0" y="0.0" type="line"/>
      <point x="1098.0" y="46.0" type="line"/>
      <point x="388.0" y="896.0" type="line"/>
      <point x="1380.0" y="1748.0" type="line"/>
      <point x="1342.0" y="1792.0" type="line"/>
      <point x="298.0" y="896.0" type="line"/>
    </contour>
  </outline>
</glyph>
<glyph name="rightHookArrow" format="2">
  <advance width="3218.0"/>
  <unicode hex="21AA"/>
  <note>
Mirror copy of leftHookArrow
</note>
  <outline>
    <contour>
      <point x="882.0" y="864.0" type="curve" smooth="yes"/>
      <point x="2898.0" y="864.0" type="line"/>
      <point x="2908.0" y="928.0" type="line"/>
      <point x="892.0" y="928.0" type="line" smooth="yes"/>
      <point x="602.0" y="928.0"/>
      <point x="404.0" y="1166.0"/>
      <point x="452.0" y="1456.0" type="curve" smooth="yes"/>
      <point x="500.0" y="1748.0"/>
      <point x="776.0" y="1984.0"/>
      <point x="1068.0" y="1984.0" type="curve" smooth="yes"/>
      <point x="1180.0" y="1984.0" type="line"/>
      <point x="1190.0" y="2048.0" type="line"/>
      <point x="1078.0" y="2048.0" type="line" smooth="yes"/>
      <point x="750.0" y="2048.0"/>
      <point x="442.0" y="1784.0"/>
      <point x="388.0" y="1456.0" type="curve" smooth="yes"/>
      <point x="334.0" y="1130.0"/>
      <point x="554.0" y="864.0"/>
    </contour>
    <contour>
      <point x="1916.0" y="0.0" type="line"/>
      <point x="2962.0" y="896.0" type="line"/>
      <point x="2214.0" y="1792.0" type="line"/>
      <point x="2162.0" y="1748.0" type="line"/>
      <point x="2872.0" y="896.0" type="line"/>
      <point x="1880.0" y="46.0" type="line"/>
    </contour>
  </outline>
</glyph>
<glyph name="upTipLeftArrow" format="2">
  <advance width="2622.0"/>
  <unicode hex="21B0"/>
  <note>
Mirror copy of carriagereturn
</note>
  <outline>
    <contour>
      <point x="870.0" y="1124.0" type="line"/>
      <point x="1034.0" y="2112.0" type="line"/>
      <point x="418.0" y="1618.0" type="line"/>
    </contour>
    <contour>
      <point x="826.0" y="1586.0" type="line"/>
      <point x="2472.0" y="1586.0" type="line"/>
      <point x="2482.0" y="1650.0" type="line"/>
      <point x="836.0" y="1650.0" type="line"/>
    </contour>
    <contour>
      <point x="2150.0" y="0.0" type="line"/>
      <point x="2214.0" y="0.0" type="line"/>
      <point x="2488.0" y="1650.0" type="line"/>
      <point x="2424.0" y="1650.0" type="line"/>
    </contour>
  </outline>
</glyph>
<glyph name="upTipRightArrow" format="2">
  <advance width="2622.0"/>
  <unicode hex="21B1"/>
  <note>
Mirror copy of carriagereturn
</note>
  <outline>
    <contour>
      <point x="1870.0" y="1124.0" type="line"/>
      <point x="2486.0" y="1618.0" type="line"/>
      <point x="2034.0" y="2112.0" type="line"/>
    </contour>
    <contour>
      <point x="154.0" y="0.0" type="line"/>
      <point x="218.0" y="0.0" type="line"/>
      <point x="492.0" y="1650.0" type="line"/>
      <point x="428.0" y="1650.0" type="line"/>
    </contour>
    <contour>
      <point x="422.0" y="1586.0" type="line"/>
      <point x="2068.0" y="1586.0" type="line"/>
      <point x="2080.0" y="1650.0" type="line"/>
      <point x="434.0" y="1650.0" type="line"/>
    </contour>
  </outline>
</glyph>
<glyph name="downTipRightArrow" format="2">
  <advance width="2622.0"/>
  <unicode hex="21B3"/>
  <note>
Mirror copy of carriagereturn
</note>
  <outline>
    <contour>
      <point x="1750.0" y="402.0" type="line"/>
      <point x="2366.0" y="896.0" type="line"/>
      <point x="1912.0" y="1390.0" type="line"/>
    </contour>
    <contour>
      <point x="296.0" y="864.0" type="line"/>
      <point x="360.0" y="864.0" type="line"/>
      <point x="556.0" y="2048.0" type="line"/>
      <point x="492.0" y="2048.0" type="line"/>
    </contour>
    <contour>
      <point x="302.0" y="864.0" type="line"/>
      <point x="1948.0" y="864.0" type="line"/>
      <point x="1958.0" y="928.0" type="line"/>
      <point x="312.0" y="928.0" type="line"/>
    </contour>
  </outline>
</glyph>
<glyph name="rightCornerDownArrow" format="2">
  <advance width="2670.0"/>
  <unicode hex="21B4"/>
  <note>
Mirror copy of carriagereturn
</note>
  <outline>
    <contour>
      <point x="1768.0" y="-16.0" type="line"/>
      <point x="2350.0" y="518.0" type="line"/>
      <point x="1362.0" y="518.0" type="line"/>
    </contour>
    <contour>
      <point x="1804.0" y="396.0" type="line"/>
      <point x="1868.0" y="396.0" type="line"/>
      <point x="2140.0" y="2042.0" type="line"/>
      <point x="2076.0" y="2042.0" type="line"/>
    </contour>
    <contour>
      <point x="482.0" y="1984.0" type="line"/>
      <point x="2132.0" y="1984.0" type="line"/>
      <point x="2142.0" y="2048.0" type="line"/>
      <point x="492.0" y="2048.0" type="line"/>
    </contour>
  </outline>
</glyph>
<glyph name="carriagereturn" format="2">
  <advance width="2622.0"/>
  <unicode hex="21B5"/>
  <outline>
    <contour>
      <point x="752.0" y="402.0" type="line"/>
      <point x="914.0" y="1390.0" type="line"/>
      <point x="300.0" y="896.0" type="line"/>
    </contour>
    <contour>
      <point x="706.0" y="864.0" type="line"/>
      <point x="2352.0" y="864.0" type="line"/>
      <point x="2362.0" y="928.0" type="line"/>
      <point x="716.0" y="928.0" type="line"/>
    </contour>
    <contour>
      <point x="2294.0" y="864.0" type="line"/>
      <point x="2358.0" y="864.0" type="line"/>
      <point x="2554.0" y="2048.0" type="line"/>
      <point x="2490.0" y="2048.0" type="line"/>
    </contour>
  </outline>
</glyph>
<glyph name="anticlockwiseOpenCircleArrow" format="2">
  <advance width="2688.0"/>
  <unicode hex="21BA"/>
  <outline>
    <contour>
      <point x="1546.0" y="1984.0" type="line"/>
      <point x="2076.0" y="1984.0"/>
      <point x="2434.0" y="1556.0"/>
      <point x="2346.0" y="1024.0" type="curve" smooth="yes"/>
      <point x="2260.0" y="494.0"/>
      <point x="1760.0" y="64.0"/>
      <point x="1228.0" y="64.0" type="curve" smooth="yes"/>
      <point x="696.0" y="64.0"/>
      <point x="338.0" y="494.0"/>
      <point x="426.0" y="1024.0" type="curve"/>
      <point x="362.0" y="1024.0" type="line"/>
      <point x="268.0" y="458.0"/>
      <point x="652.0" y="0.0"/>
      <point x="1216.0" y="0.0" type="curve" smooth="yes"/>
      <point x="1784.0" y="0.0"/>
      <point x="2318.0" y="458.0"/>
      <point x="2410.0" y="1024.0" type="curve" smooth="yes"/>
      <point x="2504.0" y="1590.0"/>
      <point x="2122.0" y="2048.0"/>
      <point x="1556.0" y="2048.0" type="curve"/>
    </contour>
    <contour>
      <point x="1530.0" y="1508.0" type="line"/>
      <point x="1694.0" y="2496.0" type="line"/>
      <point x="1078.0" y="2002.0" type="line"/>
    </contour>
  </outline>
</glyph>
<glyph name="clockwiseOpenCircleArrow" format="2">
  <advance width="2688.0"/>
  <unicode hex="21BB"/>
  <outline>
    <contour>
      <point x="1216.0" y="0.0" type="curve" smooth="yes"/>
      <point x="1782.0" y="0.0"/>
      <point x="2318.0" y="458.0"/>
      <point x="2410.0" y="1024.0" type="curve"/>
      <point x="2346.0" y="1024.0" type="line"/>
      <point x="2260.0" y="494.0"/>
      <point x="1758.0" y="64.0"/>
      <point x="1228.0" y="64.0" type="curve" smooth="yes"/>
      <point x="696.0" y="64.0"/>
      <point x="338.0" y="494.0"/>
      <point x="426.0" y="1024.0" type="curve" smooth="yes"/>
      <point x="516.0" y="1556.0"/>
      <point x="1014.0" y="1984.0"/>
      <point x="1546.0" y="1984.0" type="curve"/>
      <point x="1556.0" y="2048.0" type="line"/>
      <point x="988.0" y="2048.0"/>
      <point x="458.0" y="1590.0"/>
      <point x="362.0" y="1024.0" type="curve" smooth="yes"/>
      <point x="268.0" y="458.0"/>
      <point x="650.0" y="0.0"/>
    </contour>
    <contour>
      <point x="1402.0" y="1508.0" type="line"/>
      <point x="2018.0" y="2002.0" type="line"/>
      <point x="1566.0" y="2496.0" type="line"/>
    </contour>
  </outline>
</glyph>
<glyph name="pageup" format="2">
  <advance width="1500.0"/>
  <unicode hex="21DE"/>
  <outline>
    <contour>
      <point x="384.0" y="1536.0" type="line"/>
      <point x="1372.0" y="1536.0" type="line"/>
      <point x="966.0" y="2070.0" type="line"/>
    </contour>
    <contour>
      <point x="302.0" y="576.0" type="line"/>
      <point x="1134.0" y="576.0" type="line"/>
      <point x="1144.0" y="640.0" type="line"/>
      <point x="312.0" y="640.0" type="line"/>
    </contour>
    <contour>
      <point x="590.0" y="0.0" type="line"/>
      <point x="654.0" y="0.0" type="line"/>
      <point x="940.0" y="1718.0" type="line"/>
      <point x="876.0" y="1718.0" type="line"/>
    </contour>
    <contour>
      <point x="376.0" y="1024.0" type="line"/>
      <point x="1208.0" y="1024.0" type="line"/>
      <point x="1218.0" y="1088.0" type="line"/>
      <point x="386.0" y="1088.0" type="line"/>
    </contour>
  </outline>
</glyph>
<glyph name="pagedown" format="2">
  <advance width="1500.0"/>
  <unicode hex="21DF"/>
  <outline>
    <contour>
      <point x="620.0" y="-22.0" type="line"/>
      <point x="1202.0" y="512.0" type="line"/>
      <point x="214.0" y="512.0" type="line"/>
    </contour>
    <contour>
      <point x="366.0" y="960.0" type="line"/>
      <point x="1198.0" y="960.0" type="line"/>
      <point x="1208.0" y="1024.0" type="line"/>
      <point x="376.0" y="1024.0" type="line"/>
    </contour>
    <contour>
      <point x="646.0" y="330.0" type="line"/>
      <point x="710.0" y="330.0" type="line"/>
      <point x="994.0" y="2048.0" type="line"/>
      <point x="930.0" y="2048.0" type="line"/>
    </contour>
    <contour>
      <point x="440.0" y="1408.0" type="line"/>
      <point x="1272.0" y="1408.0" type="line"/>
      <point x="1282.0" y="1472.0" type="line"/>
      <point x="450.0" y="1472.0" type="line"/>
    </contour>
  </outline>
</glyph>
<glyph name="arrowtableft" format="2">
  <advance width="2696.0"/>
  <unicode hex="21E4"/>
  <outline>
    <contour>
      <point x="1016.0" y="530.0" type="line"/>
      <point x="1180.0" y="1518.0" type="line"/>
      <point x="564.0" y="1024.0" type="line"/>
    </contour>
    <contour>
      <point x="214.0" y="512.0" type="line"/>
      <point x="278.0" y="512.0" type="line"/>
      <point x="448.0" y="1536.0" type="line"/>
      <point x="384.0" y="1536.0" type="line"/>
    </contour>
    <contour>
      <point x="972.0" y="992.0" type="line"/>
      <point x="2478.0" y="992.0" type="line"/>
      <point x="2488.0" y="1056.0" type="line"/>
      <point x="982.0" y="1056.0" type="line"/>
    </contour>
  </outline>
</glyph>
<glyph name="arrowtabright" format="2">
  <advance width="2696.0"/>
  <unicode hex="21E5"/>
  <note>
Mirror copy of arrowtableft
</note>
  <outline>
    <contour>
      <point x="1600.0" y="530.0" type="line"/>
      <point x="2216.0" y="1024.0" type="line"/>
      <point x="1764.0" y="1518.0" type="line"/>
    </contour>
    <contour>
      <point x="294.0" y="992.0" type="line"/>
      <point x="1800.0" y="992.0" type="line"/>
      <point x="1810.0" y="1056.0" type="line"/>
      <point x="304.0" y="1056.0" type="line"/>
    </contour>
    <contour>
      <point x="2334.0" y="512.0" type="line"/>
      <point x="2398.0" y="512.0" type="line"/>
      <point x="2568.0" y="1536.0" type="line"/>
      <point x="2504.0" y="1536.0" type="line"/>
    </contour>
  </outline>
</glyph>
<glyph name="upWhiteArrow" format="2">
  <advance width="2432.0"/>
  <unicode hex="21E7"/>
  <note>
based of off upBlackArrow
stroke:
L: 32,32,100%,keepCom.
R: 100,90,100%,keepCom.
B: 208,150,100%,keepCom.
</note>
  <outline>
    <contour>
      <point x="336.0" y="1248.0" type="line"/>
      <point x="880.0" y="1248.0" type="line"/>
      <point x="672.0" y="0.0" type="line"/>
      <point x="1504.0" y="0.0" type="line"/>
      <point x="1712.0" y="1248.0" type="line"/>
      <point x="2256.0" y="1248.0" type="line"/>
      <point x="1454.0" y="2208.0" type="line"/>
    </contour>
    <contour>
      <point x="509.0" y="1312.0" type="line"/>
      <point x="1446.0" y="2117.0" type="line"/>
      <point x="2119.0" y="1312.0" type="line"/>
      <point x="1658.0" y="1312.0" type="line"/>
      <point x="1450.0" y="64.0" type="line"/>
      <point x="748.0" y="64.0" type="line"/>
      <point x="956.0" y="1312.0" type="line"/>
    </contour>
  </outline>
</glyph>
<glyph name="capslock" format="2">
  <advance width="2432.0"/>
  <unicode hex="21EA"/>
  <note>
Based on upWhiteArrow
</note>
  <outline>
    <contour>
      <point x="786.0" y="688.0" type="line"/>
      <point x="1618.0" y="688.0" type="line"/>
      <point x="1712.0" y="1248.0" type="line"/>
      <point x="2256.0" y="1248.0" type="line"/>
      <point x="1454.0" y="2208.0" type="line"/>
      <point x="336.0" y="1248.0" type="line"/>
      <point x="880.0" y="1248.0" type="line"/>
    </contour>
    <contour>
      <point x="672.0" y="0.0" type="line"/>
      <point x="1504.0" y="0.0" type="line"/>
      <point x="1580.0" y="448.0" type="line"/>
      <point x="748.0" y="448.0" type="line"/>
    </contour>
    <contour>
      <point x="748.0" y="64.0" type="line"/>
      <point x="800.0" y="384.0" type="line"/>
      <point x="1504.0" y="384.0" type="line"/>
      <point x="1452.0" y="64.0" type="line"/>
    </contour>
    <contour>
      <point x="862.0" y="752.0" type="line"/>
      <point x="954.0" y="1312.0" type="line"/>
      <point x="502.0" y="1312.0" type="line"/>
      <point x="1440.0" y="2118.0" type="line"/>
      <point x="2112.0" y="1312.0" type="line"/>
      <point x="1658.0" y="1312.0" type="line"/>
      <point x="1566.0" y="752.0" type="line"/>
    </contour>
  </outline>
</glyph>
<glyph name="control" format="2">
  <advance width="2240.0"/>
  <unicode hex="2303"/>
  <note>
stroke:
L: 32,32,100%
R: 108,108,100%
B: 200,200,100%
</note>
  <outline>
    <contour>
      <point x="422.0" y="1199.0" type="line"/>
      <point x="1328.0" y="1977.0" type="line"/>
      <point x="1980.0" y="1198.0" type="line"/>
      <point x="2028.0" y="1238.0" type="line"/>
      <point x="1336.0" y="2068.0" type="line"/>
      <point x="380.0" y="1248.0" type="line"/>
    </contour>
  </outline>
</glyph>
<glyph name="projective" format="2">
  <advance width="2240.0"/>
  <unicode hex="2305"/>
  <note>
Based on control
</note>
  <outline>
    <contour>
      <point x="502.0" y="1984.0" type="line"/>
      <point x="2134.0" y="1984.0" type="line"/>
      <point x="2144.0" y="2048.0" type="line"/>
      <point x="512.0" y="2048.0" type="line"/>
    </contour>
    <component base="control" xOffset="-90.0" yOffset="-512.0"/>
  </outline>
</glyph>
<glyph name="placeofinterestsign" format="2">
  <advance width="2804.0"/>
  <unicode hex="2318"/>
  <outline>
    <contour>
      <point x="602.0" y="-38.0" type="curve"/>
      <point x="822.0" y="-38.0"/>
      <point x="1028.0" y="140.0"/>
      <point x="1064.0" y="358.0" type="curve"/>
      <point x="1120.0" y="690.0" type="line"/>
      <point x="1660.0" y="690.0" type="line"/>
      <point x="1604.0" y="358.0" type="line"/>
      <point x="1568.0" y="140.0"/>
      <point x="1716.0" y="-38.0"/>
      <point x="1934.0" y="-38.0" type="curve"/>
      <point x="2154.0" y="-38.0"/>
      <point x="2360.0" y="140.0"/>
      <point x="2396.0" y="358.0" type="curve"/>
      <point x="2432.0" y="578.0"/>
      <point x="2284.0" y="754.0"/>
      <point x="2066.0" y="754.0" type="curve"/>
      <point x="1734.0" y="754.0" type="line"/>
      <point x="1824.0" y="1294.0" type="line"/>
      <point x="2156.0" y="1294.0" type="line"/>
      <point x="2374.0" y="1294.0"/>
      <point x="2580.0" y="1472.0"/>
      <point x="2616.0" y="1690.0" type="curve"/>
      <point x="2652.0" y="1910.0"/>
      <point x="2506.0" y="2086.0"/>
      <point x="2286.0" y="2086.0" type="curve"/>
      <point x="2068.0" y="2086.0"/>
      <point x="1860.0" y="1910.0"/>
      <point x="1824.0" y="1690.0" type="curve"/>
      <point x="1770.0" y="1358.0" type="line"/>
      <point x="1230.0" y="1358.0" type="line"/>
      <point x="1284.0" y="1690.0" type="line"/>
      <point x="1320.0" y="1910.0"/>
      <point x="1174.0" y="2086.0"/>
      <point x="954.0" y="2086.0" type="curve"/>
      <point x="736.0" y="2086.0"/>
      <point x="528.0" y="1910.0"/>
      <point x="492.0" y="1690.0" type="curve"/>
      <point x="456.0" y="1472.0"/>
      <point x="604.0" y="1294.0"/>
      <point x="824.0" y="1294.0" type="curve"/>
      <point x="1156.0" y="1294.0" type="line"/>
      <point x="1066.0" y="754.0" type="line"/>
      <point x="734.0" y="754.0" type="line"/>
      <point x="514.0" y="754.0"/>
      <point x="308.0" y="578.0"/>
      <point x="272.0" y="358.0" type="curve"/>
      <point x="236.0" y="140.0"/>
      <point x="384.0" y="-38.0"/>
    </contour>
    <contour>
      <point x="604.0" y="26.0" type="curve"/>
      <point x="420.0" y="26.0"/>
      <point x="306.0" y="176.0"/>
      <point x="336.0" y="358.0" type="curve"/>
      <point x="366.0" y="542.0"/>
      <point x="548.0" y="690.0"/>
      <point x="732.0" y="690.0" type="curve"/>
      <point x="1056.0" y="690.0" type="line"/>
      <point x="1000.0" y="358.0" type="line"/>
      <point x="970.0" y="176.0"/>
      <point x="786.0" y="26.0"/>
    </contour>
    <contour>
      <point x="824.0" y="1358.0" type="line"/>
      <point x="640.0" y="1358.0"/>
      <point x="526.0" y="1508.0"/>
      <point x="556.0" y="1690.0" type="curve"/>
      <point x="586.0" y="1874.0"/>
      <point x="768.0" y="2022.0"/>
      <point x="952.0" y="2022.0" type="curve"/>
      <point x="1134.0" y="2022.0"/>
      <point x="1250.0" y="1874.0"/>
      <point x="1220.0" y="1690.0" type="curve"/>
      <point x="1166.0" y="1358.0" type="line"/>
    </contour>
    <contour>
      <point x="1834.0" y="1358.0" type="line"/>
      <point x="1888.0" y="1690.0" type="line"/>
      <point x="1918.0" y="1874.0"/>
      <point x="2100.0" y="2022.0"/>
      <point x="2284.0" y="2022.0" type="curve"/>
      <point x="2466.0" y="2022.0"/>
      <point x="2582.0" y="1874.0"/>
      <point x="2552.0" y="1690.0" type="curve"/>
      <point x="2522.0" y="1508.0"/>
      <point x="2338.0" y="1358.0"/>
      <point x="2156.0" y="1358.0" type="curve"/>
    </contour>
    <contour>
      <point x="1936.0" y="26.0" type="curve"/>
      <point x="1752.0" y="26.0"/>
      <point x="1638.0" y="176.0"/>
      <point x="1668.0" y="358.0" type="curve"/>
      <point x="1724.0" y="690.0" type="line"/>
      <point x="2064.0" y="690.0" type="line"/>
      <point x="2246.0" y="690.0"/>
      <point x="2362.0" y="542.0"/>
      <point x="2332.0" y="358.0" type="curve"/>
      <point x="2302.0" y="176.0"/>
      <point x="2118.0" y="26.0"/>
    </contour>
    <contour>
      <point x="1130.0" y="754.0" type="line"/>
      <point x="1220.0" y="1294.0" type="line"/>
      <point x="1760.0" y="1294.0" type="line"/>
      <point x="1670.0" y="754.0" type="line"/>
    </contour>
  </outline>
</glyph>
<glyph name="option" format="2">
  <advance width="2848.0"/>
  <unicode hex="2325"/>
  <note>
stroke:
L: 32,32,50%
R: 108,110,50%
B: 208,200,50%
</note>
  <outline>
    <contour>
      <point x="1846.0" y="2048.0" type="line"/>
      <point x="1836.0" y="1984.0" type="line"/>
      <point x="2794.0" y="1984.0" type="line"/>
      <point x="2804.0" y="2048.0" type="line"/>
    </contour>
    <contour>
      <point x="458.0" y="1984.0" type="line"/>
      <point x="1110.0" y="1984.0" type="line"/>
      <point x="1772.0" y="0.0" type="line"/>
      <point x="2464.0" y="0.0" type="line"/>
      <point x="2476.0" y="64.0" type="line"/>
      <point x="1824.0" y="64.0" type="line"/>
      <point x="1160.0" y="2048.0" type="line"/>
      <point x="468.0" y="2048.0" type="line"/>
    </contour>
  </outline>
</glyph>
<glyph name="deleteright" format="2">
  <advance width="3424.0"/>
  <unicode hex="2326"/>
  <outline>
    <contour>
      <point x="128.0" y="0.0" type="line"/>
      <point x="2040.0" y="0.0" type="line"/>
      <point x="3228.0" y="1024.0" type="line"/>
      <point x="2380.0" y="2048.0" type="line"/>
      <point x="468.0" y="2048.0" type="line"/>
    </contour>
    <contour>
      <point x="854.0" y="476.0" type="line"/>
      <point x="2082.0" y="1528.0" type="line"/>
      <point x="2044.0" y="1574.0" type="line"/>
      <point x="816.0" y="522.0" type="line"/>
    </contour>
    <contour>
      <point x="1862.0" y="476.0" type="line"/>
      <point x="1916.0" y="522.0" type="line"/>
      <point x="1036.0" y="1574.0" type="line"/>
      <point x="982.0" y="1528.0" type="line"/>
    </contour>
    <contour>
      <point x="204.0" y="64.0" type="line"/>
      <point x="522.0" y="1984.0" type="line"/>
      <point x="2344.0" y="1984.0" type="line"/>
      <point x="3138.0" y="1024.0" type="line"/>
      <point x="2026.0" y="64.0" type="line"/>
    </contour>
  </outline>
</glyph>
<glyph name="clear" format="2">
  <advance width="2808.0"/>
  <unicode hex="2327"/>
  <note>
Based on deleteleft
</note>
  <outline>
    <contour>
      <point x="128.0" y="0.0" type="line"/>
      <point x="2424.0" y="0.0" type="line"/>
      <point x="2764.0" y="2048.0" type="line"/>
      <point x="468.0" y="2048.0" type="line"/>
    </contour>
    <contour>
      <point x="204.0" y="64.0" type="line"/>
      <point x="522.0" y="1984.0" type="line"/>
      <point x="2690.0" y="1984.0" type="line"/>
      <point x="2372.0" y="64.0" type="line"/>
    </contour>
    <contour>
      <point x="1860.0" y="476.0" type="line"/>
      <point x="1914.0" y="522.0" type="line"/>
      <point x="1034.0" y="1574.0" type="line"/>
      <point x="980.0" y="1528.0" type="line"/>
    </contour>
    <contour>
      <point x="852.0" y="476.0" type="line"/>
      <point x="2080.0" y="1528.0" type="line"/>
      <point x="2042.0" y="1574.0" type="line"/>
      <point x="814.0" y="522.0" type="line"/>
    </contour>
  </outline>
</glyph>
<glyph name="deleteleft" format="2">
  <advance width="3424.0"/>
  <unicode hex="232B"/>
  <note>
stroke:
L: 32
R outer: 108,110,100%
R x: 104,104,50%
B outer: 208,200,100%
B x: 200,200,50%
</note>
  <outline>
    <contour>
      <point x="1128.0" y="0.0" type="line"/>
      <point x="3040.0" y="0.0" type="line"/>
      <point x="3380.0" y="2048.0" type="line"/>
      <point x="1468.0" y="2048.0" type="line"/>
      <point x="280.0" y="1024.0" type="line"/>
    </contour>
    <contour>
      <point x="1166.0" y="64.0" type="line"/>
      <point x="370.0" y="1024.0" type="line"/>
      <point x="1484.0" y="1984.0" type="line"/>
      <point x="3306.0" y="1984.0" type="line"/>
      <point x="2988.0" y="64.0" type="line"/>
    </contour>
    <contour>
      <point x="2528.0" y="522.0" type="line"/>
      <point x="1648.0" y="1574.0" type="line"/>
      <point x="1594.0" y="1528.0" type="line"/>
      <point x="2474.0" y="476.0" type="line"/>
    </contour>
    <contour>
      <point x="1466.0" y="476.0" type="line"/>
      <point x="2694.0" y="1528.0" type="line"/>
      <point x="2656.0" y="1574.0" type="line"/>
      <point x="1428.0" y="522.0" type="line"/>
    </contour>
  </outline>
</glyph>
<glyph name="alternativekeysymbol" format="2">
  <advance width="2848.0"/>
  <unicode hex="2387"/>
  <note>
Mirror copy of option
</note>
  <outline>
    <contour>
      <point x="128.0" y="0.0" type="line"/>
      <point x="826.0" y="0.0" type="line"/>
      <point x="2142.0" y="1984.0" type="line"/>
      <point x="2794.0" y="1984.0" type="line"/>
      <point x="2804.0" y="2048.0" type="line"/>
      <point x="2106.0" y="2048.0" type="line"/>
      <point x="792.0" y="64.0" type="line"/>
      <point x="140.0" y="64.0" type="line"/>
    </contour>
    <contour>
      <point x="1506.0" y="0.0" type="line"/>
      <point x="2464.0" y="0.0" type="line"/>
      <point x="2476.0" y="64.0" type="line"/>
      <point x="1518.0" y="64.0" type="line"/>
    </contour>
  </outline>
</glyph>
<glyph name="brokenCircleNorthWestArrow" format="2">
  <advance width="2688.0"/>
  <unicode hex="238B"/>
  <note>
L: 32
R arrowhead: 108, 50%
R circle: 110, 100%
B: 208
</note>
  <outline>
    <contour>
      <point x="624.0" y="1884.0" type="line"/>
      <point x="1360.0" y="1002.0" type="line"/>
      <point x="1414.0" y="1048.0" type="line"/>
      <point x="678.0" y="1930.0" type="line"/>
    </contour>
    <contour>
      <point x="448.0" y="1536.0" type="line"/>
      <point x="1044.0" y="2048.0" type="line"/>
      <point x="532.0" y="2048.0" type="line"/>
    </contour>
    <contour>
      <point x="1546.0" y="1984.0" type="line"/>
      <point x="2086.0" y="1984.0"/>
      <point x="2434.0" y="1556.0"/>
      <point x="2346.0" y="1024.0" type="curve" smooth="yes"/>
      <point x="2260.0" y="494.0"/>
      <point x="1748.0" y="64.0"/>
      <point x="1216.0" y="64.0" type="curve" smooth="yes"/>
      <point x="684.0" y="64.0"/>
      <point x="338.0" y="494.0"/>
      <point x="426.0" y="1024.0" type="curve"/>
      <point x="362.0" y="1024.0" type="line"/>
      <point x="268.0" y="458.0"/>
      <point x="652.0" y="0.0"/>
      <point x="1216.0" y="0.0" type="curve" smooth="yes"/>
      <point x="1786.0" y="0.0"/>
      <point x="2318.0" y="456.0"/>
      <point x="2410.0" y="1024.0" type="curve" smooth="yes"/>
      <point x="2502.0" y="1590.0"/>
      <point x="2122.0" y="2048.0"/>
      <point x="1556.0" y="2048.0" type="curve"/>
    </contour>
  </outline>
</glyph>
<glyph name="returnsymbol" format="2">
  <advance width="2622.0"/>
  <unicode hex="23CE"/>
  <outline>
    <contour>
      <point x="752.0" y="402.0" type="line"/>
      <point x="914.0" y="1390.0" type="line"/>
      <point x="300.0" y="896.0" type="line"/>
    </contour>
    <contour>
      <point x="706.0" y="864.0" type="line"/>
      <point x="2352.0" y="864.0" type="line"/>
      <point x="2362.0" y="928.0" type="line"/>
      <point x="716.0" y="928.0" type="line"/>
    </contour>
    <contour>
      <point x="2294.0" y="864.0" type="line"/>
      <point x="2358.0" y="864.0" type="line"/>
      <point x="2554.0" y="2048.0" type="line"/>
      <point x="2490.0" y="2048.0" type="line"/>
    </contour>
    <contour>
      <point x="1898.0" y="1984.0" type="line"/>
      <point x="2538.0" y="1984.0" type="line"/>
      <point x="2548.0" y="2048.0" type="line"/>
      <point x="1908.0" y="2048.0" type="line"/>
    </contour>
  </outline>
</glyph>
<glyph name="ejectsymbol" format="2">
  <advance width="2432.0"/>
  <unicode hex="23CF"/>
  <outline>
    <contour>
      <point x="152.0" y="548.0" type="line"/>
      <point x="2206.0" y="548.0" type="line"/>
      <point x="2232.0" y="704.0" type="line"/>
      <point x="178.0" y="704.0" type="line"/>
    </contour>
    <contour>
      <point x="226.0" y="1024.0" type="line"/>
      <point x="2290.0" y="1024.0" type="line"/>
      <point x="1432.0" y="2078.0" type="line"/>
    </contour>
  </outline>
</glyph>
<glyph name="openbullet" format="2">
  <advance width="1280.0"/>
  <unicode hex="25E6"/>
  <guideline x="1104.0" y="816.0" angle="0.0"/>
  <outline>
    <contour>
      <point x="604.0" y="560.0" type="curve" smooth="yes"/>
      <point x="744.0" y="560.0"/>
      <point x="880.0" y="676.0"/>
      <point x="904.0" y="816.0" type="curve" smooth="yes"/>
      <point x="928.0" y="956.0"/>
      <point x="828.0" y="1072.0"/>
      <point x="688.0" y="1072.0" type="curve" smooth="yes"/>
      <point x="548.0" y="1072.0"/>
      <point x="412.0" y="956.0"/>
      <point x="392.0" y="816.0" type="curve" smooth="yes"/>
      <point x="372.0" y="675.0"/>
      <point x="464.0" y="560.0"/>
    </contour>
    <contour>
      <point x="604.0" y="624.0" type="curve" smooth="yes"/>
      <point x="496.0" y="624.0"/>
      <point x="436.0" y="708.0"/>
      <point x="456.0" y="816.0" type="curve" smooth="yes"/>
      <point x="476.0" y="923.0"/>
      <point x="588.0" y="1008.0"/>
      <point x="696.0" y="1008.0" type="curve" smooth="yes"/>
      <point x="800.0" y="1008.0"/>
      <point x="856.0" y="920.0"/>
      <point x="840.0" y="816.0" type="curve" smooth="yes"/>
      <point x="824.0" y="711.0"/>
      <point x="708.0" y="624.0"/>
    </contour>
  </outline>
</glyph>
<glyph name="blackstar" format="2">
  <advance width="2944.0"/>
  <unicode hex="2605"/>
  <outline>
    <contour>
      <point x="1432.0" y="526.0" type="line"/>
      <point x="2098.0" y="-20.0" type="line"/>
      <point x="1946.0" y="868.0" type="line"/>
      <point x="2796.0" y="1416.0" type="line"/>
      <point x="1868.0" y="1416.0" type="line"/>
      <point x="1726.0" y="2304.0" type="line"/>
      <point x="1292.0" y="1416.0" type="line"/>
      <point x="364.0" y="1416.0" type="line"/>
      <point x="1030.0" y="868.0" type="line"/>
      <point x="586.0" y="-20.0" type="line"/>
    </contour>
  </outline>
</glyph>
<glyph name="whitestar" format="2">
  <advance width="2944.0"/>
  <unicode hex="2606"/>
  <outline>
    <contour>
      <point x="1432.0" y="526.0" type="line"/>
      <point x="2098.0" y="-20.0" type="line"/>
      <point x="1946.0" y="868.0" type="line"/>
      <point x="2796.0" y="1416.0" type="line"/>
      <point x="1868.0" y="1416.0" type="line"/>
      <point x="1726.0" y="2304.0" type="line"/>
      <point x="1292.0" y="1416.0" type="line"/>
      <point x="364.0" y="1416.0" type="line"/>
      <point x="1030.0" y="868.0" type="line"/>
      <point x="586.0" y="-20.0" type="line"/>
    </contour>
    <contour>
      <point x="1436.0" y="606.0" type="line"/>
      <point x="748.0" y="162.0" type="line"/>
      <point x="1110.0" y="886.0" type="line"/>
      <point x="544.0" y="1352.0" type="line"/>
      <point x="1332.0" y="1352.0" type="line"/>
      <point x="1696.0" y="2094.0" type="line"/>
      <point x="1814.0" y="1352.0" type="line"/>
      <point x="2580.0" y="1352.0" type="line"/>
      <point x="1876.0" y="900.0" type="line"/>
      <point x="2006.0" y="138.0" type="line"/>
    </contour>
  </outline>
</glyph>
<glyph name="sunWithRays" format="2">
  <advance width="3008.0"/>
  <unicode hex="263C"/>
  <outline>
    <contour>
      <point x="1470.0" y="572.0" type="curve" smooth="yes"/>
      <point x="1718.0" y="572.0"/>
      <point x="1958.0" y="776.0"/>
      <point x="1998.0" y="1024.0" type="curve" smooth="yes"/>
      <point x="2038.0" y="1272.0"/>
      <point x="1870.0" y="1476.0"/>
      <point x="1622.0" y="1476.0" type="curve" smooth="yes"/>
      <point x="1370.0" y="1476.0"/>
      <point x="1134.0" y="1272.0"/>
      <point x="1094.0" y="1024.0" type="curve" smooth="yes"/>
      <point x="1054.0" y="776.0"/>
      <point x="1222.0" y="572.0"/>
    </contour>
    <contour>
      <point x="1470.0" y="636.0" type="curve" smooth="yes"/>
      <point x="1254.0" y="636.0"/>
      <point x="1122.0" y="812.0"/>
      <point x="1158.0" y="1024.0" type="curve" smooth="yes"/>
      <point x="1195.0" y="1240.0"/>
      <point x="1406.0" y="1412.0"/>
      <point x="1622.0" y="1412.0" type="curve" smooth="yes"/>
      <point x="1834.0" y="1412.0"/>
      <point x="1970.0" y="1240.0"/>
      <point x="1934.0" y="1024.0" type="curve" smooth="yes"/>
      <point x="1899.0" y="812.0"/>
      <point x="1682.0" y="636.0"/>
    </contour>
    <contour>
      <point x="1622.0" y="1676.0" type="line"/>
      <point x="1686.0" y="1676.0" type="line"/>
      <point x="1786.0" y="2284.0" type="line"/>
      <point x="1722.0" y="2284.0" type="line"/>
    </contour>
    <contour>
      <point x="2102.0" y="1464.0" type="line"/>
      <point x="2602.0" y="1892.0" type="line"/>
      <point x="2566.0" y="1936.0" type="line"/>
      <point x="2066.0" y="1508.0" type="line"/>
    </contour>
    <contour>
      <point x="2194.0" y="992.0" type="line"/>
      <point x="2802.0" y="992.0" type="line"/>
      <point x="2810.0" y="1056.0" type="line"/>
      <point x="2202.0" y="1056.0" type="line"/>
    </contour>
    <contour>
      <point x="2262.0" y="112.0" type="line"/>
      <point x="2314.0" y="156.0" type="line"/>
      <point x="1958.0" y="584.0" type="line"/>
      <point x="1906.0" y="540.0" type="line"/>
    </contour>
    <contour>
      <point x="1306.0" y="-236.0" type="line"/>
      <point x="1370.0" y="-236.0" type="line"/>
      <point x="1470.0" y="372.0" type="line"/>
      <point x="1406.0" y="372.0" type="line"/>
    </contour>
    <contour>
      <point x="526.0" y="112.0" type="line"/>
      <point x="1026.0" y="540.0" type="line"/>
      <point x="990.0" y="584.0" type="line"/>
      <point x="490.0" y="156.0" type="line"/>
    </contour>
    <contour>
      <point x="282.0" y="992.0" type="line"/>
      <point x="890.0" y="992.0" type="line"/>
      <point x="898.0" y="1056.0" type="line"/>
      <point x="290.0" y="1056.0" type="line"/>
    </contour>
    <contour>
      <point x="1134.0" y="1464.0" type="line"/>
      <point x="1186.0" y="1508.0" type="line"/>
      <point x="830.0" y="1936.0" type="line"/>
      <point x="778.0" y="1892.0" type="line"/>
    </contour>
  </outline>
</glyph>
<glyph name="leftLongArrow" format="2">
  <advance width="3776.0"/>
  <unicode hex="27F5"/>
  <outline>
    <contour>
      <point x="1046.0" y="0.0" type="line"/>
      <point x="1096.0" y="42.0" type="line"/>
      <point x="410.0" y="864.0" type="line"/>
      <point x="3440.0" y="864.0" type="line"/>
      <point x="3450.0" y="928.0" type="line"/>
      <point x="432.0" y="928.0" type="line"/>
      <point x="1386.0" y="1744.0" type="line"/>
      <point x="1344.0" y="1792.0" type="line"/>
      <point x="298.0" y="896.0" type="line"/>
    </contour>
  </outline>
</glyph>
<glyph name="rightLongArrow" format="2">
  <advance width="3776.0"/>
  <unicode hex="27F6"/>
  <outline>
    <contour>
      <point x="2474.0" y="0.0" type="line"/>
      <point x="3520.0" y="896.0" type="line"/>
      <point x="2772.0" y="1792.0" type="line"/>
      <point x="2722.0" y="1750.0" type="line"/>
      <point x="3408.0" y="928.0" type="line"/>
      <point x="378.0" y="928.0" type="line"/>
      <point x="368.0" y="864.0" type="line"/>
      <point x="3386.0" y="864.0" type="line"/>
      <point x="2432.0" y="48.0" type="line"/>
    </contour>
  </outline>
</glyph>
<glyph name="leftRightLongArrow" format="2">
  <advance width="4928.0"/>
  <unicode hex="27F7"/>
  <outline>
    <contour>
      <point x="1046.0" y="0.0" type="line"/>
      <point x="1096.0" y="42.0" type="line"/>
      <point x="410.0" y="864.0" type="line"/>
      <point x="4538.0" y="864.0" type="line"/>
      <point x="3584.0" y="48.0" type="line"/>
      <point x="3626.0" y="0.0" type="line"/>
      <point x="4672.0" y="896.0" type="line"/>
      <point x="3924.0" y="1792.0" type="line"/>
      <point x="3874.0" y="1750.0" type="line"/>
      <point x="4560.0" y="928.0" type="line"/>
      <point x="432.0" y="928.0" type="line"/>
      <point x="1386.0" y="1744.0" type="line"/>
      <point x="1344.0" y="1792.0" type="line"/>
      <point x="298.0" y="896.0" type="line"/>
    </contour>
  </outline>
</glyph>
<glyph name="upBlackArrow" format="2">
  <advance width="2432.0"/>
  <unicode hex="2B06"/>
  <outline>
    <contour>
      <point x="336.0" y="1248.0" type="line"/>
      <point x="880.0" y="1248.0" type="line"/>
      <point x="672.0" y="0.0" type="line"/>
      <point x="1504.0" y="0.0" type="line"/>
      <point x="1712.0" y="1248.0" type="line"/>
      <point x="2256.0" y="1248.0" type="line"/>
      <point x="1454.0" y="2208.0" type="line"/>
    </contour>
  </outline>
</glyph>
<glyph name="Ghook.1" format="2">
  <advance width="2004.0"/>
  <unicode hex="E004"/>
  <outline>
    <contour>
      <point x="1932.0" y="1432.0" type="line"/>
      <point x="1948.0" y="1552.0" type="line" smooth="yes"/>
      <point x="1976.0" y="1702.0"/>
      <point x="2052.0" y="1766.0"/>
      <point x="2172.0" y="1764.0" type="curve" smooth="yes"/>
      <point x="2184.0" y="1766.0"/>
      <point x="2202.0" y="1764.0"/>
      <point x="2200.0" y="1760.0" type="curve"/>
      <point x="2208.0" y="1820.0" type="line"/>
      <point x="2208.0" y="1828.0"/>
      <point x="2168.0" y="1820.0"/>
      <point x="2140.0" y="1820.0" type="curve" smooth="yes"/>
      <point x="1964.0" y="1820.0"/>
      <point x="1962.0" y="1720.0"/>
      <point x="1908.0" y="1552.0" type="curve" smooth="yes"/>
      <point x="1868.0" y="1432.0" type="line"/>
    </contour>
    <component base="G.1"/>
  </outline>
</glyph>
<glyph name="a.1" format="2">
  <advance width="1684.0"/>
  <unicode hex="E02C"/>
  <note>
Based on /d
</note>
  <outline>
    <contour>
      <point x="640.0" y="-32.0" type="curve" smooth="yes"/>
      <point x="886.0" y="-32.0"/>
      <point x="1102.0" y="130.0"/>
      <point x="1228.0" y="384.0" type="curve"/>
      <point x="1236.0" y="384.0" type="line"/>
      <point x="1172.0" y="0.0" type="line"/>
      <point x="1236.0" y="0.0" type="line"/>
      <point x="1492.0" y="1536.0" type="line"/>
      <point x="1428.0" y="1536.0" type="line"/>
      <point x="1362.0" y="1144.0" type="line"/>
      <point x="1354.0" y="1144.0" type="line"/>
      <point x="1316.0" y="1400.0"/>
      <point x="1148.0" y="1560.0"/>
      <point x="902.0" y="1560.0" type="curve" smooth="yes"/>
      <point x="544.0" y="1560.0"/>
      <point x="254.0" y="1216.0"/>
      <point x="178.0" y="764.0" type="curve" smooth="yes"/>
      <point x="104.0" y="310.0"/>
      <point x="276.0" y="-32.0"/>
    </contour>
    <contour>
      <point x="640.0" y="32.0" type="curve" smooth="yes"/>
      <point x="314.0" y="32.0"/>
      <point x="174.0" y="348.0"/>
      <point x="242.0" y="764.0" type="curve" smooth="yes"/>
      <point x="312.0" y="1180.0"/>
      <point x="578.0" y="1496.0"/>
      <point x="902.0" y="1496.0" type="curve" smooth="yes"/>
      <point x="1226.0" y="1496.0"/>
      <point x="1368.0" y="1180.0"/>
      <point x="1298.0" y="764.0" type="curve" smooth="yes"/>
      <point x="1230.0" y="348.0"/>
      <point x="966.0" y="32.0"/>
    </contour>
  </outline>
</glyph>
<glyph name="rrthook" format="2">
  <advance width="916.0"/>
  <unicode hex="E05D"/>
  <outline>
    <contour>
      <point x="340.0" y="-540.0" type="curve" smooth="yes"/>
      <point x="356.0" y="-540.0"/>
      <point x="376.0" y="-540.0"/>
      <point x="392.0" y="-540.0" type="curve"/>
      <point x="402.0" y="-476.0" type="line"/>
      <point x="386.0" y="-476.0"/>
      <point x="366.0" y="-476.0"/>
      <point x="350.0" y="-476.0" type="curve" smooth="yes"/>
      <point x="222.0" y="-476.0"/>
      <point x="146.0" y="-386.0"/>
      <point x="166.0" y="-256.0" type="curve" smooth="yes"/>
      <point x="208.0" y="0.0" type="line"/>
      <point x="144.0" y="0.0" type="line"/>
      <point x="102.0" y="-256.0" type="line" smooth="yes"/>
      <point x="74.0" y="-422.0"/>
      <point x="174.0" y="-540.0"/>
    </contour>
    <component base="r"/>
  </outline>
</glyph>
<glyph name="uni1F16A" format="2">
  <advance width="1712.0"/>
  <unicode hex="1F16A"/>
  <outline>
    <contour>
      <point x="536.0" y="1312.0" type="line"/>
      <point x="604.0" y="1312.0" type="line"/>
      <point x="1034.0" y="2048.0" type="line"/>
      <point x="964.0" y="2048.0" type="line"/>
      <point x="584.0" y="1396.0" type="line"/>
      <point x="420.0" y="2048.0" type="line"/>
      <point x="350.0" y="2048.0" type="line"/>
    </contour>
    <contour>
      <point x="218.0" y="1312.0" type="line"/>
      <point x="282.0" y="1312.0" type="line"/>
      <point x="404.0" y="2048.0" type="line"/>
      <point x="340.0" y="2048.0" type="line"/>
    </contour>
    <contour>
      <point x="858.0" y="1312.0" type="line"/>
      <point x="922.0" y="1312.0" type="line"/>
      <point x="1044.0" y="2048.0" type="line"/>
      <point x="980.0" y="2048.0" type="line"/>
    </contour>
    <contour>
      <point x="1394.0" y="1306.0" type="curve" smooth="yes"/>
      <point x="1568.0" y="1306.0"/>
      <point x="1682.0" y="1382.0"/>
      <point x="1726.0" y="1536.0" type="curve"/>
      <point x="1662.0" y="1536.0" type="line"/>
      <point x="1622.0" y="1418.0"/>
      <point x="1538.0" y="1370.0"/>
      <point x="1406.0" y="1370.0" type="curve" smooth="yes"/>
      <point x="1218.0" y="1370.0"/>
      <point x="1164.0" y="1472.0"/>
      <point x="1198.0" y="1680.0" type="curve" smooth="yes"/>
      <point x="1234.0" y="1900.0"/>
      <point x="1322.0" y="1990.0"/>
      <point x="1508.0" y="1990.0" type="curve" smooth="yes"/>
      <point x="1642.0" y="1990.0"/>
      <point x="1706.0" y="1942.0"/>
      <point x="1708.0" y="1824.0" type="curve"/>
      <point x="1772.0" y="1824.0" type="line"/>
      <point x="1778.0" y="1980.0"/>
      <point x="1690.0" y="2054.0"/>
      <point x="1518.0" y="2054.0" type="curve" smooth="yes"/>
      <point x="1298.0" y="2054.0"/>
      <point x="1176.0" y="1926.0"/>
      <point x="1134.0" y="1680.0" type="curve" smooth="yes"/>
      <point x="1091.0" y="1426.0"/>
      <point x="1176.0" y="1306.0"/>
    </contour>
  </outline>
</glyph>
<glyph name="uni1F16B" format="2">
  <advance width="1644.0"/>
  <unicode hex="1F16B"/>
  <outline>
    <contour>
      <point x="536.0" y="1312.0" type="line"/>
      <point x="604.0" y="1312.0" type="line"/>
      <point x="1034.0" y="2048.0" type="line"/>
      <point x="964.0" y="2048.0" type="line"/>
      <point x="584.0" y="1396.0" type="line"/>
      <point x="420.0" y="2048.0" type="line"/>
      <point x="350.0" y="2048.0" type="line"/>
    </contour>
    <contour>
      <point x="218.0" y="1312.0" type="line"/>
      <point x="282.0" y="1312.0" type="line"/>
      <point x="404.0" y="2048.0" type="line"/>
      <point x="340.0" y="2048.0" type="line"/>
    </contour>
    <contour>
      <point x="858.0" y="1312.0" type="line"/>
      <point x="922.0" y="1312.0" type="line"/>
      <point x="1044.0" y="2048.0" type="line"/>
      <point x="980.0" y="2048.0" type="line"/>
    </contour>
    <contour>
      <point x="1090.0" y="1312.0" type="line"/>
      <point x="1154.0" y="1312.0" type="line"/>
      <point x="1276.0" y="2048.0" type="line"/>
      <point x="1212.0" y="2048.0" type="line"/>
    </contour>
    <contour>
      <point x="1122.0" y="1312.0" type="line"/>
      <point x="1322.0" y="1312.0" type="line" smooth="yes"/>
      <point x="1476.0" y="1312.0"/>
      <point x="1641.0" y="1439.0"/>
      <point x="1672.0" y="1620.0" type="curve" smooth="yes"/>
      <point x="1694.0" y="1748.0" type="line" smooth="yes"/>
      <point x="1725.0" y="1926.0"/>
      <point x="1598.0" y="2048.0"/>
      <point x="1444.0" y="2048.0" type="curve" smooth="yes"/>
      <point x="1244.0" y="2048.0" type="line"/>
      <point x="1232.0" y="1984.0" type="line"/>
      <point x="1432.0" y="1984.0" type="line" smooth="yes"/>
      <point x="1563.0" y="1984.0"/>
      <point x="1653.0" y="1879.0"/>
      <point x="1630.0" y="1748.0" type="curve" smooth="yes"/>
      <point x="1608.0" y="1620.0" type="line" smooth="yes"/>
      <point x="1585.0" y="1485.0"/>
      <point x="1461.0" y="1376.0"/>
      <point x="1332.0" y="1376.0" type="curve" smooth="yes"/>
      <point x="1132.0" y="1376.0" type="line"/>
    </contour>
  </outline>
</glyph>
<glyph name="G.1" format="2">
  <advance width="2080.0"/>
  <outline>
    <contour>
      <point x="926.0" y="-28.0" type="curve" smooth="yes"/>
      <point x="1259.0" y="-28.0"/>
      <point x="1554.0" y="146.0"/>
      <point x="1728.0" y="474.0" type="curve"/>
      <point x="1736.0" y="474.0" type="line"/>
      <point x="1658.0" y="0.0" type="line"/>
      <point x="1722.0" y="0.0" type="line"/>
      <point x="1876.0" y="928.0" type="line"/>
      <point x="1104.0" y="928.0" type="line"/>
      <point x="1094.0" y="864.0" type="line"/>
      <point x="1830.0" y="864.0" type="line"/>
      <point x="1806.0" y="888.0" type="line"/>
      <point x="1725.0" y="352.0"/>
      <point x="1354.0" y="36.0"/>
      <point x="926.0" y="36.0" type="curve" smooth="yes"/>
      <point x="442.0" y="36.0"/>
      <point x="211.0" y="440.0"/>
      <point x="308.0" y="1024.0" type="curve" smooth="yes"/>
      <point x="406.0" y="1616.0"/>
      <point x="796.0" y="2012.0"/>
      <point x="1266.0" y="2012.0" type="curve" smooth="yes"/>
      <point x="1688.0" y="2012.0"/>
      <point x="1874.0" y="1688.0"/>
      <point x="1876.0" y="1408.0" type="curve"/>
      <point x="1940.0" y="1408.0" type="line"/>
      <point x="1940.0" y="1700.0"/>
      <point x="1746.0" y="2076.0"/>
      <point x="1266.0" y="2076.0" type="curve" smooth="yes"/>
      <point x="758.0" y="2076.0"/>
      <point x="348.0" y="1654.0"/>
      <point x="244.0" y="1024.0" type="curve" smooth="yes"/>
      <point x="140.0" y="398.0"/>
      <point x="406.0" y="-28.0"/>
    </contour>
  </outline>
</glyph>
<glyph name="Gbar.1" format="2">
  <advance width="2016.0"/>
  <outline>
    <contour>
      <point x="1940.0" y="640.0" type="line"/>
      <point x="1060.0" y="640.0" type="line"/>
      <point x="1048.0" y="576.0" type="line"/>
      <point x="1928.0" y="576.0" type="line"/>
    </contour>
    <component base="G.1"/>
  </outline>
</glyph>
<glyph name="bracketleft.sups" format="2">
  <advance width="608.0"/>
  <outline>
    <contour>
      <point x="232.0" y="748.0" type="line"/>
      <point x="540.0" y="748.0" type="line"/>
      <point x="550.0" y="812.0" type="line"/>
      <point x="306.0" y="812.0" type="line"/>
      <point x="568.0" y="2388.0" type="line"/>
      <point x="812.0" y="2388.0" type="line"/>
      <point x="822.0" y="2452.0" type="line"/>
      <point x="514.0" y="2452.0" type="line"/>
    </contour>
  </outline>
</glyph>
<glyph name="cyrillictail.cn" format="2">
  <advance width="704.0"/>
  <outline>
    <contour>
      <point x="298.0" y="256.0" type="line"/>
      <point x="234.0" y="256.0" type="line"/>
      <point x="204.0" y="64.0" type="line" smooth="yes"/>
      <point x="186.0" y="-50.0"/>
      <point x="138.0" y="-156.0"/>
      <point x="76.0" y="-270.0" type="curve"/>
      <point x="132.0" y="-292.0" type="line"/>
      <point x="196.0" y="-174.0"/>
      <point x="249.0" y="-58.0"/>
      <point x="268.0" y="64.0" type="curve" smooth="yes"/>
    </contour>
  </outline>
</glyph>
<glyph name="macronacutecomb.cn" format="2">
  <guideline x="-278.0" y="2174.0" angle="260.6"/>
  <outline>
    <contour>
      <point x="-272.0" y="2528.0" type="line"/>
      <point x="-196.0" y="2528.0" type="line"/>
      <point x="98.0" y="2784.0" type="line"/>
      <point x="6.0" y="2784.0" type="line"/>
    </contour>
    <component base="macron" xOffset="-854.0" yOffset="424.0"/>
  </outline>
</glyph>
<glyph name="macrongravecomb.cn" format="2">
  <guideline x="-296.0" y="2174.0" angle="260.6"/>
  <outline>
    <contour>
      <point x="-268.0" y="2528.0" type="line"/>
      <point x="-192.0" y="2528.0" type="line"/>
      <point x="-386.0" y="2784.0" type="line"/>
      <point x="-478.0" y="2784.0" type="line"/>
    </contour>
    <component base="macron" xOffset="-870.0" yOffset="424.0"/>
  </outline>
</glyph>
<glyph name="one.ss01" format="2">
  <advance width="1136.0"/>
  <outline>
    <contour>
      <point x="916.0" y="2048.0" type="line"/>
      <point x="860.0" y="2048.0" type="line"/>
      <point x="844.0" y="2028.0"/>
      <point x="632.0" y="1740.0"/>
      <point x="360.0" y="1728.0" type="curve"/>
      <point x="348.0" y="1664.0" type="line"/>
      <point x="584.0" y="1672.0"/>
      <point x="772.0" y="1860.0"/>
      <point x="812.0" y="1904.0" type="curve"/>
      <point x="828.0" y="1904.0" type="line"/>
      <point x="512.0" y="0.0" type="line"/>
      <point x="576.0" y="0.0" type="line"/>
    </contour>
  </outline>
</glyph>
<glyph name="tildeacutecomb.uc" format="2">
  <guideline x="-280.0" y="2174.0" angle="260.6"/>
  <outline>
    <contour>
      <point x="-272.0" y="2528.0" type="line"/>
      <point x="-196.0" y="2528.0" type="line"/>
      <point x="98.0" y="2784.0" type="line"/>
      <point x="6.0" y="2784.0" type="line"/>
    </contour>
    <component base="tilde" xOffset="-1136.0" yOffset="440.0"/>
  </outline>
</glyph>
